<?xml version="1.0" encoding="UTF-8" standalone="no"?>
<!-- Created with Inkscape (http://www.inkscape.org/) -->

<svg
   xmlns:dc="http://purl.org/dc/elements/1.1/"
   xmlns:cc="http://creativecommons.org/ns#"
   xmlns:rdf="http://www.w3.org/1999/02/22-rdf-syntax-ns#"
   xmlns:svg="http://www.w3.org/2000/svg"
   xmlns="http://www.w3.org/2000/svg"
   xmlns:sodipodi="http://sodipodi.sourceforge.net/DTD/sodipodi-0.dtd"
   xmlns:inkscape="http://www.inkscape.org/namespaces/inkscape"
   id="svg2"
   version="1.1"
   inkscape:version="0.48.5 r10040"
   width="5000"
   height="1905"
   xml:space="preserve"
   sodipodi:docname="IVSTEL LOGO ORG.svg"
   inkscape:export-filename="C:\Users\Alec\Desktop\Ivstel Logo\IVSTel\IVSTEL LOGO ORG1.png"
   inkscape:export-xdpi="90"
   inkscape:export-ydpi="90"><metadata
     id="metadata8"><rdf:RDF><cc:Work
         rdf:about=""><dc:format>image/svg+xml</dc:format><dc:type
           rdf:resource="http://purl.org/dc/dcmitype/StillImage" /><dc:title /></cc:Work></rdf:RDF></metadata><defs
     id="defs6"><clipPath
       clipPathUnits="userSpaceOnUse"
       id="clipPath16"><path
         d="m 4.654,2329.066 3458.273,0 0,-2324.413 -3458.273,0 0,2324.413 z"
         id="path18"
         inkscape:connector-curvature="0" /></clipPath></defs><sodipodi:namedview
     pagecolor="#ffffff"
     bordercolor="#666666"
     borderopacity="1"
     objecttolerance="10"
     gridtolerance="10"
     guidetolerance="10"
     inkscape:pageopacity="0"
     inkscape:pageshadow="2"
     inkscape:window-width="1680"
     inkscape:window-height="1031"
     id="namedview4"
     showgrid="false"
     inkscape:zoom="0.11441112"
     inkscape:cx="1484.1529"
     inkscape:cy="1138.5924"
     inkscape:window-x="1276"
     inkscape:window-y="-4"
     inkscape:window-maximized="1"
     inkscape:current-layer="g4165" /><g
     id="g10"
     inkscape:groupmode="layer"
     inkscape:label="20140508 IVSTEL LOGO PDF"
     transform="matrix(1.25,0,0,-1.25,0,852.63802)"><g
       id="g12"
       transform="matrix(1.3813877,0,0,1.3813877,-395.03601,-1691.7757)"><g
         id="g14"
         clip-path="url(#clipPath16)"><g
           id="g4165"
           transform="translate(-79.647016,49.005047)"><g
             id="g4244"><path
               d="m 1575.759,1279.555 -51.886,0 0,-223.108 51.886,0 0,223.108 z m 225.271,-223.109 122.796,223.109 -51.885,0 -86.044,-161.278 -90.368,161.278 -59.235,0 128.849,-223.109 35.887,0 z m 376.604,158.684 45.833,10.809 0,4.757 c 0,18.735 -4.11,31.564 -12.324,38.482 -8.214,6.919 -22.558,10.377 -43.022,10.377 l -126.686,0 c -21.336,0 -35.889,-3.607 -43.672,-10.809 -7.783,-7.209 -11.675,-21.187 -11.675,-41.941 l 0,-24.646 c 0,-20.754 3.892,-34.739 11.675,-41.941 7.783,-7.208 22.336,-10.811 43.672,-10.811 l 139.225,0 0,-51.019 -157.818,0 0,26.375 -45.833,-9.512 0,-6.055 c 0,-20.754 3.96,-34.737 11.89,-41.939 7.924,-7.21 22.552,-10.811 43.888,-10.811 l 137.928,0 c 21.329,0 35.956,3.601 43.887,10.811 7.923,7.202 11.89,21.185 11.89,41.939 l 0,30.7 c 0,20.754 -3.972,34.733 -11.918,41.941 -7.943,7.202 -22.604,10.809 -43.979,10.809 l -139.539,0 0,47.995 146.578,0 0,-25.511 z m 363.201,24.646 0,39.779 -257.266,0 0,-39.779 102.474,0 0,-183.33 51.886,0 0,183.33 102.906,0 z m 294.019,-183.33 0,41.942 -178.573,0 0,55.344 102.907,0 0,38.05 -102.907,0 0,49.723 176.412,0 0,38.05 -228.297,0 0,-223.109 230.458,0 z m 315.208,0 0,41.942 -167.332,0 0,181.167 -51.885,0 0,-223.109 219.217,0 z"
               style="fill:#000000;fill-opacity:1;fill-rule:nonzero;stroke:none"
               id="path20"
               inkscape:connector-curvature="0" /><g
               id="g22"
               transform="translate(3152.6055,997.916)"><path
                 d="m 0,0 0,-8.611 c -4.732,3.807 -8.864,5.704 -12.432,5.704 -1.598,0 -2.929,-0.421 -4.011,-1.297 -1.069,-0.89 -1.621,-1.969 -1.621,-3.256 0,-1.621 1.429,-3.493 4.251,-5.632 4.588,-3.375 7.266,-5.392 8.024,-6.125 2.81,-2.884 4.215,-6.065 4.215,-9.501 0,-3.867 -1.213,-7.012 -3.639,-9.404 -2.415,-2.391 -5.465,-3.591 -9.164,-3.591 -4.408,0 -9.213,1.911 -14.365,5.731 l 1.393,7.95 c 5.153,-4.336 9.381,-6.498 12.708,-6.498 1.525,0 2.797,0.444 3.831,1.357 0.997,0.912 1.525,2.066 1.525,3.493 0,1.923 -1.442,4.013 -4.252,6.199 -5.115,4.083 -7.674,6.173 -7.734,6.21 -2.824,2.846 -4.253,5.967 -4.253,9.32 0,3.747 1.202,6.773 3.555,9.079 2.355,2.271 5.502,3.447 9.441,3.447 C -8.349,4.575 -4.181,3.05 0,0 m -60.39,3.218 -1.02,-7.674 0.167,-0.192 c 4.431,5.706 9.019,8.539 13.742,8.539 3.433,0 6.052,-1.428 7.817,-4.263 1.538,-2.391 2.318,-5.418 2.318,-9.129 0,-1.177 -0.095,-2.294 -0.288,-3.397 l -3.951,-27.446 -7.736,0 3.759,27.743 c 0.145,0.963 0.192,1.875 0.192,2.727 0,4.637 -1.548,6.967 -4.708,6.967 -3.554,0 -7.698,-3.218 -12.418,-9.694 l -3.771,-27.743 -7.746,0 5.801,43.562 7.842,0 z m -50.216,-26.303 c 0,-3.422 0.709,-6.208 2.09,-8.347 1.381,-2.137 3.121,-3.195 5.187,-3.195 3.352,0 6.138,1.946 8.444,5.861 2.319,3.927 3.447,8.852 3.447,14.809 0,3.616 -0.648,6.547 -1.968,8.72 -1.335,2.21 -3.123,3.314 -5.393,3.314 -3.328,0 -6.115,-2.137 -8.385,-6.352 -2.269,-4.251 -3.422,-9.178 -3.422,-14.81 m 27.204,8.636 c 0,-8.024 -1.91,-14.569 -5.669,-19.637 -3.783,-5.092 -8.443,-7.627 -13.968,-7.627 -4.841,0 -8.671,1.718 -11.422,5.14 -2.762,3.424 -4.131,8.24 -4.131,14.352 0,7.652 1.872,14.006 5.666,19.12 3.762,5.119 8.469,7.676 14.127,7.676 4.66,0 8.407,-1.763 11.193,-5.211 2.799,-3.447 4.204,-8.071 4.204,-13.813 m -46.434,36.08 c 1.263,0 2.295,-0.468 3.209,-1.382 0.863,-0.948 1.321,-2.065 1.321,-3.362 0,-1.285 -0.458,-2.415 -1.321,-3.327 -0.914,-0.96 -1.946,-1.406 -3.209,-1.406 -1.2,0 -2.269,0.446 -3.146,1.406 -0.901,0.912 -1.344,2.042 -1.344,3.327 0,1.297 0.443,2.414 1.344,3.362 0.877,0.914 1.946,1.382 3.146,1.382 m 2.511,-18.413 -5.814,-43.562 -7.818,0 5.789,43.562 7.843,0 z m -19.217,0 -0.841,-6.413 -8.311,0 -3.927,-23.877 c -0.205,-1.154 -0.288,-2.161 -0.288,-3.002 0,-2.835 1.452,-4.24 4.323,-4.24 2.101,0 4.625,0.84 7.567,2.594 l -0.468,-8.048 c -2.954,-1.285 -5.802,-1.945 -8.552,-1.945 -3.496,0 -6.222,0.925 -8.107,2.775 -1.921,1.826 -2.859,4.192 -2.859,7.134 0,0.697 0.05,1.453 0.181,2.223 l 4.325,26.386 -7.293,0 0.926,6.413 7.555,0 1.575,8.936 7.744,0 -1.477,-8.936 7.927,0 z m -33.149,0 -5.885,-43.562 -7.748,0 0.914,7.171 -0.156,0.192 c -4.864,-5.37 -9.405,-8.047 -13.657,-8.047 -2.509,0 -4.708,0.84 -6.545,2.509 -2.319,2.21 -3.495,5.37 -3.495,9.524 0,1.107 0.097,2.247 0.3,3.496 l 3.856,28.717 7.818,0 -3.856,-28.717 c -0.13,-0.985 -0.203,-1.873 -0.203,-2.727 0,-4.336 1.537,-6.52 4.612,-6.52 3.195,0 7.34,3.242 12.429,9.621 l 3.786,28.343 7.83,0 z m -42.53,22.581 -8.84,-66.143 -7.842,0 8.851,66.143 7.831,0 z m -52.569,-48.884 c 0,-3.422 0.685,-6.208 2.078,-8.347 1.369,-2.137 3.111,-3.195 5.199,-3.195 3.317,0 6.127,1.946 8.432,5.861 2.306,3.927 3.446,8.852 3.446,14.809 0,3.616 -0.658,6.547 -1.957,8.72 -1.344,2.21 -3.135,3.314 -5.392,3.314 -3.338,0 -6.127,-2.137 -8.384,-6.352 -2.294,-4.251 -3.422,-9.178 -3.422,-14.81 m 27.168,8.636 c 0,-8.024 -1.862,-14.569 -5.658,-19.637 -3.77,-5.092 -8.431,-7.627 -13.956,-7.627 -4.852,0 -8.66,1.718 -11.411,5.14 -2.786,3.424 -4.166,8.24 -4.166,14.352 0,7.652 1.897,14.006 5.667,19.12 3.786,5.119 8.505,7.676 14.162,7.676 4.635,0 8.395,-1.763 11.181,-5.211 2.799,-3.447 4.181,-8.071 4.181,-13.813 m -44.092,38.518 -1.188,-9.031 c -3.448,2.342 -7.123,3.518 -11.05,3.518 -3.4,0 -6.066,-0.912 -8.072,-2.727 -1.994,-1.824 -3.002,-4.263 -3.002,-7.289 0,-2.835 1.862,-5.934 5.537,-9.309 6.749,-6.221 10.148,-9.321 10.22,-9.321 3.7,-4.19 5.527,-8.743 5.527,-13.68 0,-4.563 -1.528,-8.527 -4.614,-11.841 -3.496,-3.747 -8.165,-5.633 -13.991,-5.633 -5.032,0 -10.112,1.621 -15.194,4.791 l 1.285,9.681 c 5.777,-4.214 10.701,-6.281 14.749,-6.281 2.077,0 4.036,0.637 5.898,1.921 2.269,1.621 3.398,3.832 3.398,6.593 0,3.172 -1.85,6.5 -5.524,9.993 -3.375,3.172 -6.786,6.331 -10.234,9.501 -3.675,4.228 -5.525,8.757 -5.525,13.68 0,5.249 2.078,9.621 6.258,13.116 3.927,3.278 8.611,4.949 13.993,4.949 3.891,0 7.722,-0.901 11.529,-2.631 M -360.596,0 l 0,-8.611 c -4.742,3.807 -8.884,5.704 -12.44,5.704 -1.597,0 -2.932,-0.421 -4.013,-1.297 -1.069,-0.89 -1.597,-1.969 -1.597,-3.256 0,-1.621 1.417,-3.493 4.228,-5.632 4.6,-3.375 7.277,-5.392 8.022,-6.125 2.812,-2.884 4.228,-6.065 4.228,-9.501 0,-3.867 -1.213,-7.012 -3.639,-9.404 -2.413,-2.391 -5.477,-3.591 -9.176,-3.591 -4.408,0 -9.188,1.911 -14.353,5.731 l 1.381,7.95 c 5.141,-4.336 9.382,-6.498 12.708,-6.498 1.536,0 2.823,0.444 3.832,1.357 0.997,0.912 1.502,2.066 1.502,3.493 0,1.923 -1.394,4.013 -4.217,6.199 -5.116,4.083 -7.698,6.173 -7.746,6.21 -2.823,2.846 -4.24,5.967 -4.24,9.32 0,3.747 1.176,6.773 3.555,9.079 2.354,2.271 5.489,3.447 9.44,3.447 4.168,0 8.349,-1.525 12.525,-4.575 m -60.412,3.218 -1.009,-7.674 0.194,-0.192 c 4.407,5.706 8.982,8.539 13.716,8.539 3.447,0 6.041,-1.428 7.83,-4.263 1.538,-2.391 2.305,-5.418 2.305,-9.129 0,-1.177 -0.094,-2.294 -0.274,-3.397 l -3.963,-27.446 -7.748,0 3.783,27.743 c 0.133,0.963 0.18,1.875 0.18,2.727 0,4.637 -1.574,6.967 -4.684,6.967 -3.544,0 -7.722,-3.218 -12.444,-9.694 l -3.771,-27.743 -7.734,0 5.789,43.562 7.83,0 z m -50.179,-26.303 c 0,-3.422 0.685,-6.208 2.066,-8.347 1.392,-2.137 3.122,-3.195 5.187,-3.195 3.328,0 6.151,1.946 8.444,5.861 2.318,3.927 3.447,8.852 3.447,14.809 0,3.616 -0.646,6.547 -1.968,8.72 -1.31,2.21 -3.124,3.314 -5.382,3.314 -3.316,0 -6.127,-2.137 -8.384,-6.352 -2.282,-4.251 -3.41,-9.178 -3.41,-14.81 m 27.167,8.636 c 0,-8.024 -1.874,-14.569 -5.668,-19.637 -3.771,-5.092 -8.432,-7.627 -13.957,-7.627 -4.839,0 -8.659,1.718 -11.41,5.14 -2.761,3.424 -4.143,8.24 -4.143,14.352 0,7.652 1.897,14.006 5.644,19.12 3.797,5.119 8.491,7.676 14.161,7.676 4.66,0 8.383,-1.763 11.194,-5.211 2.787,-3.447 4.179,-8.071 4.179,-13.813 m -46.396,36.08 c 1.236,0 2.27,-0.468 3.172,-1.382 0.888,-0.948 1.343,-2.065 1.343,-3.362 0,-1.285 -0.455,-2.415 -1.343,-3.327 -0.902,-0.96 -1.936,-1.406 -3.172,-1.406 -1.226,0 -2.281,0.446 -3.184,1.406 -0.887,0.912 -1.344,2.042 -1.344,3.327 0,1.297 0.457,2.414 1.344,3.362 0.903,0.914 1.958,1.382 3.184,1.382 m 2.486,-18.413 -5.802,-43.562 -7.831,0 5.803,43.562 7.83,0 z m -19.228,0 -0.828,-6.413 -8.277,0 -3.963,-23.877 c -0.192,-1.154 -0.289,-2.161 -0.289,-3.002 0,-2.835 1.454,-4.24 4.335,-4.24 2.078,0 4.602,0.84 7.557,2.594 l -0.482,-8.048 c -2.943,-1.285 -5.788,-1.945 -8.551,-1.945 -3.495,0 -6.209,0.925 -8.108,2.775 -1.897,1.826 -2.857,4.192 -2.857,7.134 0,0.697 0.059,1.453 0.203,2.223 l 4.313,26.386 -7.28,0 0.925,6.413 7.555,0 1.551,8.936 7.756,0 -1.476,-8.936 7.916,0 z m -44.176,-30.975 3.4,25.151 c -0.795,0.047 -1.598,0.095 -2.39,0.095 -6.883,0 -12.013,-2.655 -15.375,-7.949 -2.353,-3.641 -3.52,-7.652 -3.52,-12.06 0,-3.471 0.782,-6.33 2.307,-8.563 1.539,-2.223 3.496,-3.351 5.896,-3.351 1.48,0 3.196,0.671 5.153,2.041 1.706,1.286 3.232,2.859 4.529,4.636 m 11.962,30.975 -5.801,-43.562 -7.831,0 0.757,5.021 -0.203,0.205 c -3.569,-4.06 -7.267,-6.126 -11.135,-6.126 -3.819,0 -7.05,1.693 -9.668,5.068 -2.653,3.363 -3.988,7.435 -3.988,12.251 0,7.807 2.175,14.28 6.462,19.469 5.033,6.005 12.252,9.031 21.643,9.031 3.806,0 7.062,-0.467 9.764,-1.357 m -47.501,-33.88 -0.913,-7.928 c -3.688,-2.09 -7.531,-3.123 -11.519,-3.123 -5.596,0 -10.015,1.813 -13.306,5.429 -3.291,3.628 -4.936,8.503 -4.936,14.652 0,7.304 2.424,13.464 7.278,18.437 5.091,5.187 11.603,7.77 19.54,7.77 1.958,0 4.324,-0.288 7.075,-0.804 l -0.997,-7.242 c -1.994,0.444 -3.975,0.685 -6.006,0.685 -5.525,0 -10.101,-1.935 -13.716,-5.753 -3.446,-3.544 -5.164,-7.736 -5.164,-12.6 0,-4.143 1.009,-7.386 3.038,-9.705 2.03,-2.329 4.793,-3.47 8.288,-3.47 3.639,0 7.422,1.187 11.338,3.652 m -40.801,52.293 c 1.249,0 2.319,-0.468 3.195,-1.382 0.901,-0.948 1.333,-2.065 1.333,-3.362 0,-1.285 -0.432,-2.415 -1.333,-3.327 -0.876,-0.96 -1.946,-1.406 -3.195,-1.406 -1.212,0 -2.269,0.446 -3.157,1.406 -0.878,0.912 -1.333,2.042 -1.333,3.327 0,1.297 0.455,2.414 1.333,3.362 0.888,0.914 1.945,1.382 3.157,1.382 m 2.512,-18.413 -5.814,-43.562 -7.831,0 5.801,43.562 7.844,0 z m -46.387,0 -1.008,-7.674 0.18,-0.192 c 4.408,5.706 9.009,8.539 13.717,8.539 3.459,0 6.053,-1.428 7.843,-4.263 1.524,-2.391 2.295,-5.418 2.295,-9.129 0,-1.177 -0.097,-2.294 -0.291,-3.397 l -3.938,-27.446 -7.734,0 3.771,27.743 c 0.119,0.963 0.192,1.875 0.192,2.727 0,4.637 -1.585,6.967 -4.698,6.967 -3.578,0 -7.721,-3.218 -12.454,-9.694 l -3.771,-27.743 -7.735,0 5.801,43.562 7.83,0 z m -23.298,0 -5.887,-43.562 -7.733,0 0.91,7.171 -0.191,0.192 c -4.84,-5.37 -9.393,-8.047 -13.632,-8.047 -2.509,0 -4.695,0.84 -6.521,2.509 -2.355,2.21 -3.495,5.37 -3.495,9.524 0,1.107 0.059,2.247 0.275,3.496 l 3.846,28.717 7.842,0 -3.88,-28.717 c -0.109,-0.985 -0.181,-1.873 -0.181,-2.727 0,-4.336 1.551,-6.52 4.613,-6.52 3.193,0 7.326,3.242 12.443,9.621 l 3.771,28.343 7.82,0 z m -96.398,0 -1.105,-7.578 0.181,-0.192 c 4.731,5.633 9.487,8.443 14.267,8.443 5.37,0 8.48,-3.279 9.417,-9.8 5.034,6.521 10.174,9.8 15.469,9.8 2.823,0 5.106,-0.96 6.811,-2.93 1.97,-2.114 2.954,-5.213 2.954,-9.2 0,-1.237 -0.108,-2.511 -0.276,-3.892 l -3.784,-28.213 -7.831,0 3.869,28.634 c 0.13,0.96 0.203,1.836 0.203,2.581 0,4.348 -1.49,6.523 -4.444,6.523 -3.806,0 -8.119,-3.375 -12.971,-10.089 l -3.784,-27.649 -7.831,0 3.675,27.54 c 0.194,1.381 0.277,2.572 0.277,3.58 0,4.42 -1.622,6.618 -4.864,6.618 -1.551,0 -3.459,-0.937 -5.777,-2.763 -2.283,-1.862 -4.528,-4.3 -6.654,-7.326 l -3.686,-27.649 -7.832,0 5.885,43.562 7.831,0 z m -72.016,0 -1.104,-7.578 0.192,-0.192 c 4.733,5.633 9.488,8.443 14.269,8.443 5.356,0 8.478,-3.279 9.416,-9.8 5.019,6.521 10.185,9.8 15.469,9.8 2.833,0 5.081,-0.96 6.81,-2.93 1.97,-2.114 2.942,-5.213 2.942,-9.2 0,-1.237 -0.094,-2.511 -0.263,-3.892 l -3.772,-28.213 -7.831,0 3.844,28.634 c 0.144,0.96 0.205,1.836 0.205,2.581 0,4.348 -1.467,6.523 -4.409,6.523 -3.844,0 -8.155,-3.375 -12.995,-10.089 l -3.795,-27.649 -7.821,0 3.69,27.54 c 0.167,1.381 0.264,2.572 0.264,3.58 0,4.42 -1.623,6.618 -4.867,6.618 -1.535,0 -3.482,-0.937 -5.763,-2.763 -2.318,-1.862 -4.529,-4.3 -6.69,-7.326 l -3.688,-27.649 -7.831,0 5.922,43.562 7.806,0 z m -49.544,-26.303 c 0,-3.422 0.709,-6.208 2.09,-8.347 1.358,-2.137 3.111,-3.195 5.178,-3.195 3.328,0 6.148,1.946 8.455,5.861 2.283,3.927 3.447,8.852 3.447,14.809 0,3.616 -0.661,6.547 -1.982,8.72 -1.332,2.21 -3.123,3.314 -5.393,3.314 -3.326,0 -6.113,-2.137 -8.384,-6.352 -2.269,-4.251 -3.411,-9.178 -3.411,-14.81 m 27.192,8.636 c 0,-8.024 -1.885,-14.569 -5.668,-19.637 -3.783,-5.092 -8.432,-7.627 -13.969,-7.627 -4.84,0 -8.66,1.718 -11.421,5.14 -2.763,3.424 -4.156,8.24 -4.156,14.352 0,7.652 1.897,14.006 5.681,19.12 3.771,5.119 8.491,7.676 14.136,7.676 4.66,0 8.407,-1.763 11.196,-5.211 2.795,-3.447 4.201,-8.071 4.201,-13.813 m -44.944,-16.213 -0.912,-7.928 c -3.688,-2.09 -7.53,-3.123 -11.531,-3.123 -5.584,0 -10.014,1.813 -13.294,5.429 -3.29,3.628 -4.949,8.503 -4.949,14.652 0,7.304 2.438,13.464 7.291,18.437 5.093,5.187 11.614,7.77 19.54,7.77 1.959,0 4.325,-0.288 7.086,-0.804 l -1.008,-7.242 c -1.969,0.444 -3.975,0.685 -6.004,0.685 -5.514,0 -10.09,-1.935 -13.728,-5.753 -3.424,-3.544 -5.129,-7.736 -5.129,-12.6 0,-4.143 0.997,-7.386 3.026,-9.705 2.042,-2.329 4.78,-3.47 8.276,-3.47 3.639,0 7.411,1.187 11.336,3.652 m -64.171,18.651 17.32,0 c 0,6.523 -2.487,9.777 -7.459,9.777 -4.504,0 -7.783,-3.254 -9.861,-9.777 m 22.845,-16.984 -1.118,-7.877 c -4.169,-3.22 -8.769,-4.841 -13.788,-4.841 -5.237,0 -9.428,1.921 -12.575,5.777 -3.182,3.844 -4.756,8.936 -4.756,15.265 0,7.136 1.898,13.116 5.657,17.945 3.795,4.865 8.43,7.301 13.957,7.301 4.166,0 7.661,-1.693 10.448,-5.044 2.799,-3.35 4.204,-7.77 4.204,-13.211 0,-1.357 -0.084,-2.715 -0.276,-4.059 l -25.787,0 c -0.253,-1.502 -0.372,-2.883 -0.372,-4.193 0,-4.131 1.129,-7.385 3.4,-9.788 2.04,-2.126 4.551,-3.183 7.564,-3.183 3.857,0 8.336,1.945 13.442,5.908 m -38.111,54.794 -8.84,-66.143 -7.818,0 8.828,66.143 7.83,0 z m -50.084,-37.81 17.319,0 c 0,6.523 -2.473,9.777 -7.458,9.777 -4.48,0 -7.771,-3.254 -9.861,-9.777 m 22.857,-16.984 -1.106,-7.877 c -4.18,-3.22 -8.804,-4.841 -13.835,-4.841 -5.213,0 -9.404,1.921 -12.575,5.777 -3.148,3.844 -4.744,8.936 -4.744,15.265 0,7.136 1.897,13.116 5.68,17.945 3.772,4.865 8.419,7.301 13.956,7.301 4.18,0 7.676,-1.693 10.461,-5.044 2.775,-3.35 4.18,-7.77 4.18,-13.211 0,-1.357 -0.097,-2.715 -0.264,-4.059 l -25.8,0 c -0.263,-1.502 -0.382,-2.883 -0.382,-4.193 0,-4.131 1.152,-7.385 3.422,-9.788 2.031,-2.126 4.54,-3.183 7.543,-3.183 3.869,0 8.371,1.945 13.464,5.908 m -35.264,54.794 -1.104,-8.252 -17.68,0 -7.748,-57.891 -8.658,0 7.746,57.891 -17.691,0 1.105,8.252 44.03,0"
                 style="fill:#d11d24;fill-opacity:1;fill-rule:nonzero;stroke:none"
                 id="path24"
                 inkscape:connector-curvature="0" /></g><g
               id="g26"
               transform="translate(3152.6055,997.916)"><path
                 d="m 0,0 0.048,0 0,-8.611 0,-0.102 -0.078,0.064 c -4.73,3.804 -8.853,5.695 -12.402,5.694 -1.589,0 -2.91,-0.416 -3.981,-1.286 -1.06,-0.883 -1.603,-1.947 -1.603,-3.219 -0.005,-1.591 1.412,-3.459 4.231,-5.594 4.59,-3.375 7.265,-5.389 8.029,-6.129 2.818,-2.89 4.23,-6.086 4.23,-9.535 0,-3.877 -1.217,-7.039 -3.654,-9.437 -2.422,-2.4 -5.488,-3.606 -9.197,-3.606 -4.423,0 -9.235,1.915 -14.395,5.74 l -0.023,0.016 1.399,7.98 0.014,0.083 0.064,-0.054 c 5.148,-4.333 9.37,-6.487 12.675,-6.486 1.517,0 2.777,0.44 3.802,1.345 0.987,0.905 1.508,2.041 1.508,3.457 10e-4,1.898 -1.427,3.979 -4.233,6.162 -5.115,4.08 -7.682,6.178 -7.73,6.205 l -0.007,0.003 -0.004,0.005 c -2.828,2.853 -4.265,5.99 -4.265,9.354 0,3.758 1.206,6.8 3.57,9.114 2.365,2.28 5.525,3.461 9.474,3.461 4.192,0 8.37,-1.531 12.555,-4.584 L 0.048,0.024 0.048,0 0,0 -0.029,-0.039 c -4.174,3.046 -8.331,4.567 -12.499,4.567 -3.93,-10e-4 -7.062,-1.174 -9.408,-3.433 -2.342,-2.298 -3.54,-5.31 -3.54,-9.046 0,-3.337 1.422,-6.446 4.238,-9.287 l -0.033,-0.033 0.023,0.042 c 0.073,-0.045 2.621,-2.128 7.741,-6.215 2.814,-2.19 4.269,-4.287 4.271,-6.236 0,-1.439 -0.535,-2.61 -1.541,-3.53 -1.043,-0.921 -2.33,-1.369 -3.866,-1.369 -3.347,0.002 -7.58,2.172 -12.738,6.51 l 0.032,0.037 0.047,-0.01 -1.393,-7.951 -0.047,0.009 0.029,0.039 c 5.147,-3.817 9.942,-5.72 14.336,-5.72 3.689,0 6.724,1.196 9.131,3.577 2.415,2.381 3.623,5.514 3.623,9.37 0,3.421 -1.398,6.592 -4.201,9.468 -0.751,0.727 -3.431,2.744 -8.016,6.119 -2.826,2.143 -4.269,4.022 -4.274,5.671 0,1.301 0.562,2.398 1.639,3.292 1.09,0.886 2.437,1.31 4.043,1.31 3.584,0 7.724,-1.907 12.461,-5.716 L 0,-8.611 l -0.049,0 0,8.611 L 0,0 -0.029,-0.039 0,0 z"
                 style="fill:#d11d24;fill-opacity:1;fill-rule:nonzero;stroke:none"
                 id="path28"
                 inkscape:connector-curvature="0" /></g><g
               id="g30"
               transform="translate(3092.2158,1001.1338)"><path
                 d="m 0,0 0.047,-0.006 -1.019,-7.651 0.165,-0.162 -0.034,-0.035 -0.038,0.028 c 4.424,5.7 9.037,8.559 13.766,8.559 3.449,0 6.088,-1.438 7.872,-4.297 1.543,-2.401 2.312,-5.436 2.312,-9.155 0,-1.168 -0.095,-2.3 -0.277,-3.407 l -3.969,-27.483 -7.776,0 -0.054,0 3.767,27.81 c 0.144,0.958 0.189,1.869 0.189,2.707 -0.004,4.644 -1.532,6.916 -4.659,6.919 -3.512,0.003 -7.651,-3.189 -12.381,-9.66 l -0.037,0.028 0.047,-0.007 -3.764,-27.797 -7.803,0 -0.054,0 5.827,43.658 7.873,0 0.055,0 L 0.047,-0.006 0,0 l 0,-0.048 -7.79,0 -5.8,-43.466 7.662,0 3.755,27.728 0.009,0.011 c 4.735,6.474 8.882,9.695 12.456,9.699 1.592,10e-4 2.789,-0.587 3.58,-1.762 0.79,-1.173 1.178,-2.922 1.178,-5.254 0,-0.841 -0.05,-1.757 -0.194,-2.72 l -3.752,-27.702 7.638,0 3.957,27.404 c 0.181,1.103 0.277,2.23 0.277,3.391 0,3.705 -0.768,6.723 -2.299,9.102 -1.772,2.835 -4.368,4.253 -7.79,4.254 -4.687,0 -9.276,-2.833 -13.691,-8.52 l -0.033,-0.044 -0.219,0.219 -0.016,0.017 1.025,7.699 L 0,0 0,-0.048 0,0 z"
                 style="fill:#d11d24;fill-opacity:1;fill-rule:nonzero;stroke:none"
                 id="path32"
                 inkscape:connector-curvature="0" /></g><g
               id="g34"
               transform="translate(3041.999,974.8428)"><path
                 d="m 0,0 0.049,0 c 0,-3.415 0.705,-6.205 2.081,-8.32 1.378,-2.13 3.099,-3.172 5.147,-3.173 3.331,0 6.101,1.93 8.403,5.837 2.313,3.918 3.441,8.834 3.441,14.784 0,3.61 -0.648,6.532 -1.963,8.695 -1.329,2.2 -3.097,3.29 -5.35,3.292 -3.306,0 -6.075,-2.119 -8.342,-6.34 C 1.199,10.542 0.049,5.627 0.049,0 L 0,0 -0.048,0 c 0,5.64 1.155,10.572 3.429,14.82 2.272,4.235 5.076,6.391 8.427,6.391 2.286,0.002 4.095,-1.117 5.433,-3.338 1.326,-2.184 1.977,-5.125 1.977,-8.745 0,-5.962 -1.131,-10.897 -3.455,-14.834 -2.309,-3.922 -5.114,-5.886 -8.486,-5.882 C 5.195,-11.592 3.436,-10.521 2.05,-8.372 0.661,-6.236 -0.048,-3.429 -0.048,0 L 0,0 z"
                 style="fill:#d11d24;fill-opacity:1;fill-rule:nonzero;stroke:none"
                 id="path36"
                 inkscape:connector-curvature="0" /></g><g
               id="g38"
               transform="translate(3069.2031,983.4795)"><path
                 d="m 0,0 0.048,0 c 0,-8.03 -1.9,-14.588 -5.677,-19.667 -3.79,-5.102 -8.468,-7.647 -14.008,-7.646 -4.851,-0.001 -8.689,1.724 -11.461,5.159 -2.759,3.433 -4.14,8.262 -4.14,14.395 0,7.646 1.886,14.023 5.677,19.138 3.766,5.125 8.492,7.695 14.176,7.693 4.66,0.002 8.424,-1.761 11.218,-5.231 C -1.349,10.385 0.048,5.76 0.048,0 L 0,0 -0.049,0 c 0,5.745 -1.389,10.346 -4.191,13.781 -2.78,3.448 -6.51,5.195 -11.145,5.195 -5.654,0 -10.344,-2.548 -14.099,-7.655 -3.776,-5.095 -5.658,-11.45 -5.658,-19.08 0,-6.119 1.378,-10.924 4.121,-14.335 2.752,-3.411 6.554,-5.122 11.384,-5.124 5.51,0.002 10.153,2.527 13.929,7.609 3.764,5.058 5.659,11.593 5.659,19.609 L 0,0 z"
                 style="fill:#d11d24;fill-opacity:1;fill-rule:nonzero;stroke:none"
                 id="path40"
                 inkscape:connector-curvature="0" /></g><g
               id="g42"
               transform="translate(3022.7832,1019.5586)"><path
                 d="M 0,0 0,0.048 C 1.261,0.05 2.308,-0.427 3.239,-1.347 L 3.24,-1.349 c 0.872,-0.945 1.335,-2.087 1.335,-3.395 0,-1.295 -0.463,-2.44 -1.335,-3.36 C 2.309,-9.073 1.26,-9.525 0,-9.524 c -1.226,0 -2.298,0.451 -3.195,1.42 -0.909,0.92 -1.347,2.065 -1.347,3.36 0,1.307 0.438,2.452 1.347,3.395 C -2.298,-0.427 -1.226,0.05 0,0.048 L 0,0 0,-0.048 c -1.201,0 -2.244,-0.462 -3.126,-1.367 -0.893,-0.927 -1.317,-2.043 -1.317,-3.329 0,-1.275 0.425,-2.389 1.317,-3.293 0.882,-0.953 1.923,-1.391 3.126,-1.393 1.238,0.002 2.253,0.44 3.172,1.393 0.855,0.904 1.307,2.02 1.307,3.293 0,1.286 -0.452,2.402 -1.307,3.329 L 3.206,-1.382 3.172,-1.416 C 2.253,-0.51 1.235,-0.048 0,-0.048 L 0,0 z"
                 style="fill:#d11d24;fill-opacity:1;fill-rule:nonzero;stroke:none"
                 id="path44"
                 inkscape:connector-curvature="0" /></g><g
               id="g46"
               transform="translate(3025.293,1001.1465)"><path
                 d="m 0,0 0.047,-0.006 -5.818,-43.604 -7.874,0 -0.055,0 5.814,43.658 7.886,0 0.054,0 L 0.047,-0.006 0,0 l 0,-0.048 -7.801,0 -5.788,-43.466 7.734,0 5.806,43.52 L 0,0 0,-0.048 0,0 z"
                 style="fill:#d11d24;fill-opacity:1;fill-rule:nonzero;stroke:none"
                 id="path48"
                 inkscape:connector-curvature="0" /></g><g
               id="g50"
               transform="translate(3006.0635,1001.1465)"><path
                 d="m 0,0 0.048,-0.006 -0.842,-6.403 -0.004,-0.041 -8.313,0 -3.921,-23.836 c -0.192,-1.152 -0.288,-2.158 -0.288,-2.994 0.007,-2.829 1.422,-4.198 4.276,-4.205 2.089,0 4.605,0.837 7.543,2.599 l 0.076,0.047 -0.472,-8.138 -0.002,-0.029 -0.027,-0.012 c -2.96,-1.298 -5.813,-1.95 -8.571,-1.95 -3.503,0 -6.243,0.916 -8.141,2.777 -1.931,1.845 -2.874,4.228 -2.874,7.169 0,0.709 0.049,1.458 0.194,2.242 l 4.303,26.33 -7.235,0 -0.054,0 0.944,6.456 0.006,0.042 7.554,0 1.555,8.895 0.008,0.039 7.787,0 0.057,0 -1.477,-8.934 7.87,0 0.056,0 L 0.048,-0.006 0,0 l 0,-0.048 -7.927,0 -0.056,0 1.476,8.936 -7.648,0 -1.555,-8.897 -0.008,-0.039 -7.553,0 -0.923,-6.306 7.235,0 0.056,0 -4.321,-26.443 c -0.142,-0.778 -0.189,-1.519 -0.189,-2.225 0,-2.921 0.93,-5.271 2.842,-7.1 1.876,-1.84 4.586,-2.749 8.074,-2.749 2.742,0 5.582,0.647 8.531,1.94 l 0.021,-0.043 -0.049,0.003 0.47,8.048 0.047,-0.005 0.025,-0.04 c -2.947,-1.767 -5.478,-2.612 -7.592,-2.612 -1.443,-0.001 -2.537,0.351 -3.271,1.072 -0.735,0.718 -1.102,1.796 -1.102,3.228 0,0.843 0.099,1.854 0.29,3.009 l 3.933,23.917 8.311,0 0.836,6.36 L 0,0 0,-0.048 0,0 z"
                 style="fill:#d11d24;fill-opacity:1;fill-rule:nonzero;stroke:none"
                 id="path52"
                 inkscape:connector-curvature="0" /></g><g
               id="g54"
               transform="translate(2972.9141,1001.1465)"><path
                 d="m 0,0 0.048,-0.006 -5.892,-43.604 -7.789,0 -0.054,0 0.917,7.215 -0.142,0.165 0.037,0.03 0.036,-0.031 c -4.882,-5.373 -9.419,-8.064 -13.692,-8.064 -2.52,0 -4.733,0.857 -6.578,2.523 -2.331,2.221 -3.51,5.408 -3.51,9.56 0,1.108 0.096,2.264 0.287,3.502 l 3.874,28.758 7.86,0 0.055,0 -3.861,-28.772 c -0.133,-0.983 -0.205,-1.87 -0.205,-2.708 0.007,-4.34 1.519,-6.469 4.564,-6.473 3.162,-0.005 7.307,3.215 12.395,9.602 l 0.035,-0.03 -0.045,0.006 3.787,28.375 7.873,0 0.056,0 L 0.048,-0.006 0,0 l 0,-0.048 -7.787,0 -3.781,-28.305 -0.007,-0.01 c -5.097,-6.393 -9.241,-9.635 -12.47,-9.638 -1.549,-0.001 -2.722,0.549 -3.498,1.65 -0.777,1.101 -1.161,2.74 -1.163,4.919 0,0.844 0.074,1.734 0.205,2.722 l 3.849,28.662 -7.721,0 -3.863,-28.676 c -0.192,-1.236 -0.287,-2.386 -0.287,-3.488 0,-4.136 1.173,-7.291 3.478,-9.491 1.83,-1.648 4.015,-2.495 6.514,-2.495 4.231,0 8.749,2.666 13.621,8.031 l 0.035,0.039 0.192,-0.222 0.016,-0.014 -0.911,-7.15 7.651,0 5.88,43.52 L 0,0 0,-0.048 0,0 z"
                 style="fill:#d11d24;fill-opacity:1;fill-rule:nonzero;stroke:none"
                 id="path56"
                 inkscape:connector-curvature="0" /></g><g
               id="g58"
               transform="translate(2930.3848,1023.7383)"><path
                 d="m 0,0 0.048,-0.006 -8.846,-66.196 -7.885,0 -0.054,0 8.864,66.251 7.873,0 0.056,0 L 0.048,-0.006 0,0 l 0,-0.048 -7.789,0 -8.838,-66.057 7.745,0 L -0.047,0.007 0,0 0,-0.048 0,0 z"
                 style="fill:#d11d24;fill-opacity:1;fill-rule:nonzero;stroke:none"
                 id="path60"
                 inkscape:connector-curvature="0" /></g><g
               id="g62"
               transform="translate(2877.8154,974.8564)"><path
                 d="m 0,0 0.047,0 c 0,-3.417 0.684,-6.207 2.07,-8.322 1.365,-2.128 3.089,-3.171 5.149,-3.173 3.305,0.002 6.099,1.931 8.402,5.837 2.301,3.918 3.439,8.834 3.439,14.786 0.002,3.608 -0.66,6.531 -1.951,8.693 -1.339,2.2 -3.109,3.292 -5.362,3.292 -3.304,0 -6.074,-2.12 -8.328,-6.34 C 1.177,10.541 0.047,5.626 0.047,0 L 0,0 -0.048,0 c 0,5.639 1.129,10.571 3.428,14.818 2.262,4.235 5.063,6.392 8.414,6.392 2.286,10e-4 4.096,-1.118 5.445,-3.337 1.303,-2.187 1.965,-5.125 1.965,-8.745 0,-5.964 -1.141,-10.897 -3.453,-14.834 -2.311,-3.924 -5.138,-5.886 -8.485,-5.886 -2.097,0 -3.857,1.071 -5.228,3.217 C 0.637,-6.238 -0.048,-3.431 -0.048,0 L 0,0 z"
                 style="fill:#d11d24;fill-opacity:1;fill-rule:nonzero;stroke:none"
                 id="path64"
                 inkscape:connector-curvature="0" /></g><g
               id="g66"
               transform="translate(2904.9834,983.4912)"><path
                 d="m 0,0 0.048,0 c 0,-8.031 -1.863,-14.588 -5.667,-19.667 -3.777,-5.102 -8.455,-7.646 -13.995,-7.646 -4.864,0 -8.688,1.724 -11.448,5.16 -2.783,3.433 -4.177,8.261 -4.177,14.394 0,7.646 1.912,14.023 5.676,19.138 3.792,5.126 8.53,7.693 14.201,7.693 4.648,0 8.425,-1.76 11.219,-5.229 C -1.337,10.384 0.048,5.761 0.048,0 L 0,0 -0.049,0 c 0,5.745 -1.38,10.345 -4.169,13.783 -2.779,3.447 -6.519,5.194 -11.144,5.194 -5.641,0 -10.344,-2.549 -14.121,-7.655 -3.754,-5.095 -5.661,-11.45 -5.661,-19.081 0,-6.119 1.393,-10.923 4.157,-14.334 2.743,-3.413 6.531,-5.123 11.373,-5.123 5.51,0 10.153,2.525 13.918,7.607 3.788,5.058 5.647,11.592 5.647,19.609 L 0,0 z"
                 style="fill:#d11d24;fill-opacity:1;fill-rule:nonzero;stroke:none"
                 id="path68"
                 inkscape:connector-curvature="0" /></g><g
               id="g70"
               transform="translate(2860.8916,1022.0088)"><path
                 d="m 0,0 0.047,-0.006 -1.189,-9.032 -0.009,-0.077 -0.064,0.044 c -3.44,2.337 -7.105,3.509 -11.023,3.509 -3.392,0 -6.044,-0.909 -8.027,-2.711 -1.983,-1.818 -2.988,-4.242 -2.988,-7.257 -0.001,-2.813 1.839,-5.903 5.523,-9.273 3.367,-3.111 5.903,-5.44 7.603,-6.992 0.851,-0.776 1.493,-1.359 1.927,-1.746 0.216,-0.193 0.382,-0.338 0.493,-0.435 l 0.13,-0.108 0.033,-0.025 0.008,-0.005 -0.019,-0.031 0,0.036 0.019,-0.005 -0.019,-0.031 0,0.036 0.022,0 0.014,-0.018 c 3.707,-4.197 5.537,-8.762 5.537,-13.699 0,-4.586 -1.53,-8.564 -4.624,-11.888 -3.504,-3.758 -8.192,-5.648 -14.027,-5.647 -5.044,0 -10.134,1.625 -15.208,4.798 l -0.025,0.017 1.275,9.724 0.012,0.08 0.065,-0.047 c 5.773,-4.226 10.69,-6.285 14.732,-6.285 2.056,10e-4 4.003,0.633 5.859,1.913 2.258,1.613 3.377,3.805 3.378,6.554 0,3.151 -1.84,6.467 -5.51,9.959 -3.375,3.17 -6.774,6.328 -10.233,9.498 l -0.003,0.004 c -3.683,4.235 -5.537,8.777 -5.537,13.713 0,5.26 2.085,9.65 6.274,13.152 3.938,3.286 8.633,4.961 14.025,4.96 3.897,0 7.737,-0.892 11.549,-2.635 L 0.053,0.029 0.047,-0.006 0,0 -0.02,-0.044 c -3.802,1.739 -7.626,2.626 -11.509,2.626 -5.372,0 -10.043,-1.665 -13.962,-4.936 -4.172,-3.489 -6.24,-7.842 -6.24,-13.079 0,-4.913 1.843,-9.427 5.512,-13.649 l -0.036,-0.032 0.033,0.036 c 3.459,-3.171 6.859,-6.33 10.234,-9.5 3.678,-3.5 5.54,-6.838 5.54,-10.029 0,-2.775 -1.139,-5.003 -3.42,-6.632 -1.869,-1.291 -3.838,-1.932 -5.914,-1.932 -4.075,10e-4 -9.006,2.073 -14.787,6.303 l 0.027,0.04 0.046,-0.007 -1.271,-9.692 -0.048,0.006 0.025,0.042 c 5.062,-3.167 10.136,-4.787 15.157,-4.787 5.815,0 10.47,1.882 13.956,5.619 3.078,3.307 4.598,7.256 4.6,11.821 -0.002,4.911 -1.82,9.452 -5.512,13.637 l 0.034,0.031 0,-0.048 -0.044,0.018 c -0.28,0.196 -3.667,3.286 -10.196,9.315 -3.691,3.379 -5.553,6.486 -5.554,9.343 0,3.038 1.015,5.492 3.019,7.325 2.004,1.823 4.685,2.74 8.092,2.74 3.937,0 7.622,-1.181 11.076,-3.527 L -1.188,-9.031 -1.237,-9.025 -0.048,0.006 0,0 -0.02,-0.044 0,0 z"
                 style="fill:#d11d24;fill-opacity:1;fill-rule:nonzero;stroke:none"
                 id="path72"
                 inkscape:connector-curvature="0" /></g><g
               id="g74"
               transform="translate(2792.0098,997.9404)"><path
                 d="m 0,0 0.05,0 0,-8.612 0,-0.101 -0.078,0.064 c -4.74,3.804 -8.865,5.694 -12.402,5.694 -1.601,0 -2.909,-0.417 -3.981,-1.287 -1.072,-0.882 -1.589,-1.946 -1.591,-3.218 -0.003,-1.591 1.4,-3.459 4.219,-5.595 4.591,-3.375 7.265,-5.39 8.029,-6.128 2.806,-2.889 4.231,-6.086 4.231,-9.535 0,-3.877 -1.206,-7.039 -3.655,-9.438 -2.422,-2.399 -5.5,-3.606 -9.197,-3.606 -4.423,0 -9.225,1.915 -14.394,5.74 l -0.024,0.016 1.399,7.981 0.014,0.083 0.065,-0.055 c 5.124,-4.333 9.37,-6.487 12.664,-6.485 1.529,0 2.81,0.44 3.812,1.343 0.985,0.905 1.484,2.041 1.484,3.459 0.002,1.898 -1.391,3.979 -4.209,6.162 -5.118,4.083 -7.696,6.169 -7.739,6.212 -2.843,2.852 -4.267,5.989 -4.267,9.355 0,3.758 1.194,6.799 3.583,9.114 2.35,2.279 5.512,3.46 9.461,3.46 4.192,0 8.37,-1.53 12.556,-4.585 L 0.05,0.024 0.05,0 0,0 -0.027,-0.039 c -4.174,3.046 -8.33,4.566 -12.499,4.566 -3.93,0 -7.062,-1.172 -9.395,-3.433 -2.368,-2.297 -3.552,-5.309 -3.552,-9.045 0,-3.338 1.409,-6.447 4.237,-9.286 0.028,-0.029 2.617,-2.125 7.73,-6.207 2.828,-2.19 4.247,-4.287 4.247,-6.236 0,-1.44 -0.51,-2.608 -1.516,-3.53 -1.02,-0.921 -2.33,-1.369 -3.876,-1.369 -3.335,0.002 -7.594,2.17 -12.726,6.51 l 0.03,0.036 0.047,-0.009 -1.393,-7.95 -0.047,0.008 0.029,0.038 c 5.158,-3.816 9.941,-5.719 14.336,-5.719 3.678,0 6.725,1.196 9.131,3.577 2.428,2.381 3.623,5.512 3.623,9.37 0,3.42 -1.41,6.59 -4.201,9.467 -0.75,0.726 -3.431,2.746 -8.018,6.12 -2.824,2.143 -4.256,4.02 -4.259,5.671 -0.001,1.299 0.537,2.397 1.627,3.292 1.091,0.885 2.425,1.309 4.042,1.309 3.573,0 7.713,-1.907 12.46,-5.715 L 0,-8.612 l -0.047,0 0,8.612 L 0,0 -0.027,-0.039 0,0 z"
                 style="fill:#d11d24;fill-opacity:1;fill-rule:nonzero;stroke:none"
                 id="path76"
                 inkscape:connector-curvature="0" /></g><g
               id="g78"
               transform="translate(2731.6094,1001.1582)"><path
                 d="m 0,0 0.049,-0.006 -1.008,-7.649 0.176,-0.165 -0.033,-0.034 -0.038,0.028 c 4.412,5.7 9,8.559 13.742,8.559 3.459,0.001 6.088,-1.44 7.883,-4.299 1.544,-2.398 2.313,-5.435 2.313,-9.152 0,-1.169 -0.096,-2.301 -0.277,-3.408 l -3.981,-27.484 -7.777,0 -0.054,0 3.779,27.811 c 0.143,0.958 0.192,1.868 0.192,2.707 -0.007,4.643 -1.558,6.915 -4.648,6.919 -3.513,0.003 -7.677,-3.191 -12.392,-9.662 l -0.039,0.029 0.048,-0.007 -3.778,-27.797 -7.788,0 -0.057,0 5.815,43.659 7.873,0 0.055,0 L 0.049,-0.006 0,0 l 0,-0.048 -7.789,0 -5.788,-43.467 7.651,0 3.768,27.727 0.006,0.011 c 4.725,6.476 8.896,9.697 12.47,9.7 1.572,0.002 2.769,-0.586 3.557,-1.761 0.793,-1.174 1.188,-2.924 1.188,-5.254 0,-0.842 -0.049,-1.757 -0.194,-2.721 l -3.764,-27.701 7.638,0 3.969,27.404 c 0.181,1.103 0.277,2.229 0.277,3.392 0,3.703 -0.767,6.721 -2.3,9.102 -1.783,2.834 -4.368,4.253 -7.801,4.253 -4.7,0 -9.262,-2.834 -13.665,-8.521 l -0.034,-0.042 -0.23,0.218 -0.019,0.016 1.014,7.698 L 0,0 0,-0.048 0,0 z"
                 style="fill:#d11d24;fill-opacity:1;fill-rule:nonzero;stroke:none"
                 id="path80"
                 inkscape:connector-curvature="0" /></g><g
               id="g82"
               transform="translate(2681.418,974.8672)"><path
                 d="m 0,0 0.048,0 c 0,-3.417 0.695,-6.205 2.07,-8.321 1.375,-2.127 3.101,-3.172 5.149,-3.172 3.305,0 6.097,1.93 8.4,5.837 2.303,3.918 3.441,8.833 3.441,14.784 0,3.609 -0.66,6.532 -1.962,8.696 -1.316,2.198 -3.098,3.289 -5.351,3.292 C 8.503,21.114 5.721,18.994 3.453,14.775 1.187,10.542 0.048,5.626 0.048,0 L 0,0 -0.047,0 c 0,5.64 1.141,10.572 3.415,14.82 2.273,4.236 5.088,6.391 8.427,6.391 2.286,0.001 4.105,-1.117 5.434,-3.339 1.314,-2.184 1.976,-5.122 1.976,-8.744 0,-5.963 -1.142,-10.897 -3.453,-14.832 -2.311,-3.924 -5.138,-5.886 -8.485,-5.886 -2.084,-0.002 -3.844,1.069 -5.23,3.216 C 0.649,-6.237 -0.047,-3.429 -0.047,0 L 0,0 z"
                 style="fill:#d11d24;fill-opacity:1;fill-rule:nonzero;stroke:none"
                 id="path84"
                 inkscape:connector-curvature="0" /></g><g
               id="g86"
               transform="translate(2708.5986,983.5029)"><path
                 d="m 0,0 0.048,0 c 0,-8.029 -1.876,-14.588 -5.693,-19.666 -3.763,-5.102 -8.441,-7.646 -13.993,-7.646 -4.84,0 -8.677,1.724 -11.435,5.159 -2.772,3.433 -4.166,8.262 -4.166,14.395 0,7.647 1.912,14.023 5.665,19.137 3.791,5.126 8.515,7.695 14.2,7.694 4.66,0 8.412,-1.76 11.218,-5.231 C -1.349,10.386 0.048,5.761 0.048,0 L 0,0 -0.05,0 c 0,5.746 -1.39,10.345 -4.179,13.783 -2.792,3.447 -6.509,5.194 -11.145,5.194 -5.654,0 -10.345,-2.549 -14.122,-7.655 -3.741,-5.095 -5.648,-11.45 -5.648,-19.08 0,-6.119 1.393,-10.923 4.145,-14.335 2.741,-3.412 6.543,-5.122 11.361,-5.122 5.522,0 10.164,2.524 13.916,7.606 C -1.921,-14.55 -0.05,-8.016 -0.05,0 L 0,0 z"
                 style="fill:#d11d24;fill-opacity:1;fill-rule:nonzero;stroke:none"
                 id="path88"
                 inkscape:connector-curvature="0" /></g><g
               id="g90"
               transform="translate(2662.2012,1019.583)"><path
                 d="m 0,0 0,0.048 c 1.249,0 2.299,-0.475 3.205,-1.397 0.897,-0.945 1.358,-2.087 1.358,-3.395 0,-1.297 -0.461,-2.441 -1.358,-3.361 C 2.299,-9.074 1.249,-9.524 0,-9.524 c -1.237,0 -2.31,0.45 -3.219,1.42 -0.897,0.919 -1.357,2.063 -1.357,3.36 0,1.308 0.46,2.45 1.357,3.395 C -2.31,-0.427 -1.237,0.048 0,0.048 L 0,0 0,-0.049 c -1.212,0 -2.256,-0.461 -3.148,-1.366 -0.881,-0.929 -1.331,-2.043 -1.331,-3.329 0,-1.274 0.45,-2.389 1.331,-3.294 0.892,-0.952 1.933,-1.39 3.148,-1.39 1.225,0 2.241,0.438 3.136,1.39 0.88,0.905 1.331,2.02 1.331,3.294 0,1.286 -0.451,2.4 -1.331,3.329 C 2.242,-0.51 1.224,-0.049 0,-0.049 L 0,0 z"
                 style="fill:#d11d24;fill-opacity:1;fill-rule:nonzero;stroke:none"
                 id="path92"
                 inkscape:connector-curvature="0" /></g><g
               id="g94"
               transform="translate(2664.6865,1001.1709)"><path
                 d="m 0,0 0.048,-0.007 -5.807,-43.603 -7.873,0 -0.056,0 5.815,43.658 7.873,0 0.055,0 L 0.048,-0.007 0,0 l 0,-0.049 -7.788,0 -5.789,-43.465 7.734,0 5.795,43.52 L 0,0 0,-0.049 0,0 z"
                 style="fill:#d11d24;fill-opacity:1;fill-rule:nonzero;stroke:none"
                 id="path96"
                 inkscape:connector-curvature="0" /></g><g
               id="g98"
               transform="translate(2645.457,1001.1709)"><path
                 d="m 0,0 0.049,-0.007 -0.83,-6.401 -0.004,-0.042 -8.289,0 -3.957,-23.836 c -0.18,-1.151 -0.276,-2.158 -0.276,-2.995 0.007,-2.829 1.421,-4.197 4.287,-4.204 2.065,0 4.581,0.837 7.532,2.599 l 0.077,0.047 -0.485,-8.139 -0.002,-0.028 -0.026,-0.012 c -2.948,-1.298 -5.814,-1.95 -8.571,-1.95 -3.505,0 -6.245,0.915 -8.153,2.777 -1.896,1.845 -2.862,4.226 -2.862,7.169 0,0.711 0.061,1.458 0.192,2.242 l 4.316,26.33 -7.234,0 -0.057,0 0.947,6.457 0.004,0.041 7.545,0 1.542,8.897 0.007,0.039 7.81,0 0.058,0 -1.476,-8.936 7.856,0 0.055,0 L 0.049,-0.007 0,0 l 0,-0.049 -7.914,0 -0.057,0 1.478,8.937 -7.673,0 -1.544,-8.896 -0.006,-0.041 -7.543,0 -0.921,-6.306 7.234,0 0.055,0 -4.332,-26.442 c -0.131,-0.778 -0.19,-1.52 -0.19,-2.225 0,-2.921 0.956,-5.271 2.831,-7.1 1.888,-1.84 4.598,-2.749 8.087,-2.749 2.741,0 5.593,0.645 8.532,1.94 l 0.018,-0.044 -0.048,0.004 0.481,8.046 0.048,-0.003 0.025,-0.041 c -2.959,-1.768 -5.489,-2.611 -7.581,-2.613 -1.448,0 -2.546,0.354 -3.282,1.072 -0.735,0.72 -1.1,1.798 -1.1,3.229 0,0.843 0.095,1.855 0.277,3.01 l 3.969,23.916 8.285,0 0.824,6.361 L 0,0 0,-0.049 0,0 z"
                 style="fill:#d11d24;fill-opacity:1;fill-rule:nonzero;stroke:none"
                 id="path100"
                 inkscape:connector-curvature="0" /></g><g
               id="g102"
               transform="translate(2601.2715,970.208)"><path
                 d="M 0,0 -0.047,0.006 3.35,25.157 3.4,25.149 3.396,25.102 c -0.793,0.047 -1.596,0.095 -2.388,0.095 -6.858,-10e-4 -11.976,-2.644 -15.319,-7.94 -2.362,-3.621 -3.513,-7.621 -3.513,-12.022 0,-3.475 0.767,-6.323 2.285,-8.535 1.533,-2.224 3.472,-3.342 5.857,-3.342 1.463,-10e-4 3.173,0.677 5.127,2.032 l 0.026,-0.039 -0.029,0.039 c 1.715,1.294 3.237,2.863 4.518,4.638 L 0,0 -0.047,0.006 0,0 0.039,-0.029 C -1.25,-1.81 -2.778,-3.388 -4.5,-4.688 l -0.002,0 c -1.962,-1.361 -3.686,-2.05 -5.18,-2.051 -2.417,0 -4.392,1.141 -5.936,3.385 -1.53,2.232 -2.303,5.1 -2.303,8.589 0,4.417 1.156,8.439 3.526,12.075 3.36,5.321 8.522,7.986 15.403,7.984 0.795,0 1.601,-0.05 2.393,-0.097 L 3.453,25.194 0.046,-0.02 0.039,-0.029 0,0 z"
                 style="fill:#d11d24;fill-opacity:1;fill-rule:nonzero;stroke:none"
                 id="path104"
                 inkscape:connector-curvature="0" /></g><g
               id="g106"
               transform="translate(2613.2334,1001.1709)"><path
                 d="m 0,0 0.047,-0.007 -5.794,-43.603 -7.885,0 -0.056,0 0.762,5.052 -0.188,0.2 0.036,0.033 0.034,-0.033 c -3.572,-4.066 -7.271,-6.141 -11.169,-6.141 -3.835,-10e-4 -7.081,1.69 -9.707,5.087 -2.661,3.359 -3.985,7.455 -3.983,12.268 -0.002,7.827 2.163,14.314 6.458,19.499 5.054,6.018 12.279,9.05 21.679,9.05 3.813,0 7.072,-0.469 9.782,-1.358 L 0.053,0.033 0.047,-0.007 0,0 -0.015,-0.046 c -2.695,0.887 -5.946,1.355 -9.751,1.355 -9.38,0 -16.57,-3.022 -21.605,-9.015 -4.278,-5.168 -6.438,-11.628 -6.438,-19.438 0,-4.796 1.318,-8.867 3.964,-12.21 2.614,-3.377 5.827,-5.048 9.632,-5.05 3.862,0 7.535,2.055 11.099,6.109 l 0.034,0.041 0.24,-0.255 0.015,-0.016 -0.751,-4.989 7.745,0 5.784,43.52 L 0,0 -0.015,-0.046 0,0 z"
                 style="fill:#d11d24;fill-opacity:1;fill-rule:nonzero;stroke:none"
                 id="path108"
                 inkscape:connector-curvature="0" /></g><g
               id="g110"
               transform="translate(2565.7324,967.2998)"><path
                 d="m 0,0 0.047,-0.004 -0.912,-7.928 -0.003,-0.023 -0.023,-0.013 c -3.693,-2.095 -7.545,-3.129 -11.542,-3.129 -5.606,0 -10.042,1.807 -13.342,5.432 -3.299,3.651 -4.95,8.541 -4.948,14.698 -0.002,7.302 2.43,13.488 7.303,18.47 5.1,5.197 11.627,7.785 19.575,7.785 1.951,0 4.319,-0.289 7.083,-0.806 L 3.283,34.474 2.282,27.186 2.273,27.135 2.223,27.146 c -1.991,0.444 -3.983,0.671 -5.994,0.671 -5.514,-0.001 -10.077,-1.915 -13.694,-5.725 -3.439,-3.536 -5.151,-7.725 -5.151,-12.568 0,-4.146 1.006,-7.364 3.026,-9.683 2.022,-2.308 4.777,-3.455 8.264,-3.455 3.616,0 7.389,1.197 11.3,3.655 L 0.06,0.096 0.047,-0.004 0,0 0.026,-0.04 c -3.922,-2.466 -7.714,-3.671 -11.352,-3.671 -3.506,0 -6.297,1.16 -8.336,3.488 -2.039,2.34 -3.052,5.585 -3.052,9.747 0,4.866 1.726,9.083 5.18,12.633 3.634,3.83 8.225,5.757 13.763,5.757 2.021,0 4.019,-0.228 6.015,-0.674 L 2.234,27.193 2.186,27.199 3.183,34.442 3.23,34.435 3.222,34.388 c -2.761,0.515 -5.126,0.803 -7.067,0.803 -7.927,0 -14.422,-2.577 -19.506,-7.756 -4.855,-4.963 -7.277,-11.122 -7.277,-18.402 0,-6.141 1.643,-11.004 4.924,-14.632 3.281,-3.605 7.686,-5.401 13.271,-5.401 3.982,0 7.815,1.029 11.497,3.115 L -0.913,-7.926 -0.96,-7.921 -0.048,0.007 0,0 0.026,-0.04 0,0 z"
                 style="fill:#d11d24;fill-opacity:1;fill-rule:nonzero;stroke:none"
                 id="path112"
                 inkscape:connector-curvature="0" /></g><g
               id="g114"
               transform="translate(2524.9443,1019.5947)"><path
                 d="m 0,0 0,0.049 c 1.261,0 2.333,-0.476 3.229,-1.397 0.909,-0.944 1.346,-2.088 1.346,-3.396 0,-1.295 -0.437,-2.44 -1.346,-3.36 C 2.333,-9.073 1.261,-9.524 0,-9.524 c -1.237,0 -2.298,0.451 -3.206,1.42 -0.873,0.92 -1.335,2.063 -1.335,3.36 0,1.308 0.462,2.45 1.335,3.396 0.908,0.921 1.968,1.397 3.206,1.397 L 0,0 0,-0.048 c -1.213,0 -2.244,-0.462 -3.137,-1.366 -0.856,-0.93 -1.307,-2.044 -1.307,-3.33 0,-1.275 0.451,-2.389 1.307,-3.293 0.896,-0.953 1.923,-1.391 3.137,-1.391 1.236,0 2.276,0.438 3.159,1.389 0.893,0.906 1.32,2.02 1.32,3.295 0,1.286 -0.425,2.4 -1.32,3.33 C 2.276,-0.51 1.236,-0.048 0,-0.048 L 0,0 z"
                 style="fill:#d11d24;fill-opacity:1;fill-rule:nonzero;stroke:none"
                 id="path116"
                 inkscape:connector-curvature="0" /></g><g
               id="g118"
               transform="translate(2527.4531,1001.1826)"><path
                 d="m 0,0 0.049,-0.006 -5.819,-43.604 -7.886,0 -0.054,0 5.827,43.658 7.883,0 0.056,0 L 0.049,-0.006 0,0 l 0,-0.049 -7.801,0 -5.799,-43.465 7.746,0 5.809,43.52 L 0,0 0,-0.049 0,0 z"
                 style="fill:#d11d24;fill-opacity:1;fill-rule:nonzero;stroke:none"
                 id="path120"
                 inkscape:connector-curvature="0" /></g><g
               id="g122"
               transform="translate(2481.0684,1001.1826)"><path
                 d="m 0,0 0.049,-0.006 -1.006,-7.651 0.164,-0.163 -0.035,-0.035 -0.037,0.03 c 4.412,5.699 9.025,8.557 13.754,8.557 3.472,0.002 6.088,-1.439 7.882,-4.296 1.543,-2.402 2.301,-5.437 2.301,-9.154 0,-1.169 -0.093,-2.302 -0.276,-3.408 l -3.957,-27.484 -7.776,0 -0.055,0 3.779,27.811 c 0.119,0.959 0.191,1.87 0.191,2.708 -0.005,4.642 -1.571,6.914 -4.648,6.917 -3.538,0.003 -7.687,-3.19 -12.416,-9.66 l -0.037,0.027 0.045,-0.006 -3.777,-27.797 -7.777,0 -0.054,0 5.813,43.658 7.873,0 0.056,0 L 0.049,-0.006 0,0 l 0,-0.049 -7.787,0 -5.789,-43.465 7.638,0 3.766,27.726 0.008,0.011 c 4.736,6.476 8.895,9.697 12.494,9.7 1.566,0.002 2.761,-0.588 3.554,-1.761 0.793,-1.174 1.191,-2.925 1.191,-5.253 0,-0.845 -0.072,-1.76 -0.192,-2.722 l -3.765,-27.701 7.638,0 3.946,27.403 c 0.179,1.104 0.277,2.23 0.277,3.393 0,3.703 -0.757,6.721 -2.288,9.102 -1.784,2.833 -4.357,4.251 -7.802,4.253 -4.689,0 -9.276,-2.834 -13.679,-8.521 l -0.033,-0.044 -0.219,0.219 -0.017,0.017 1.012,7.698 L 0,0 0,-0.049 0,0 z"
                 style="fill:#d11d24;fill-opacity:1;fill-rule:nonzero;stroke:none"
                 id="path124"
                 inkscape:connector-curvature="0" /></g><g
               id="g126"
               transform="translate(2457.7813,1001.1826)"><path
                 d="m 0,0 0.047,-0.006 -5.891,-43.604 -7.788,0 -0.055,0 0.917,7.213 -0.164,0.164 0.034,0.033 0.037,-0.031 c -4.858,-5.373 -9.408,-8.062 -13.668,-8.064 -2.523,0 -4.734,0.858 -6.568,2.524 -2.353,2.22 -3.51,5.407 -3.51,9.558 0,1.109 0.072,2.264 0.277,3.504 l 3.861,28.757 7.873,0 0.054,0 -3.875,-28.772 c -0.118,-0.983 -0.19,-1.87 -0.19,-2.708 0.007,-4.341 1.532,-6.469 4.564,-6.473 3.173,-0.003 7.291,3.215 12.404,9.602 l 0.038,-0.03 -0.046,0.006 3.788,28.375 7.861,0 0.056,0 L 0.047,-0.006 0,0 l 0,-0.049 -7.776,0 -3.781,-28.304 -0.007,-0.01 c -5.122,-6.391 -9.242,-9.635 -12.481,-9.639 -1.544,0 -2.716,0.55 -3.494,1.651 -0.779,1.099 -1.166,2.74 -1.166,4.919 0,0.844 0.072,1.735 0.191,2.72 l 3.862,28.663 -7.735,0 -3.849,-28.675 c -0.203,-1.235 -0.277,-2.385 -0.277,-3.489 0,-4.135 1.15,-7.29 3.48,-9.488 1.816,-1.65 4.002,-2.497 6.502,-2.497 4.218,-0.002 8.748,2.666 13.595,8.031 l 0.034,0.036 0.216,-0.214 0.018,-0.018 -0.91,-7.151 7.65,0 5.879,43.52 L 0,0 0,-0.049 0,0 z"
                 style="fill:#d11d24;fill-opacity:1;fill-rule:nonzero;stroke:none"
                 id="path128"
                 inkscape:connector-curvature="0" /></g><g
               id="g130"
               transform="translate(2361.3848,1001.1826)"><path
                 d="m 0,0 0.047,-0.006 -1.103,-7.555 0.163,-0.165 -0.033,-0.033 -0.036,0.03 c 4.725,5.626 9.505,8.461 14.306,8.461 5.39,0.005 8.529,-3.32 9.463,-9.854 L 22.76,-9.128 22.722,-9.1 c 5.023,6.529 10.189,9.832 15.507,9.832 2.833,0.002 5.121,-0.965 6.847,-2.946 1.979,-2.125 2.966,-5.237 2.966,-9.231 0,-1.253 -0.108,-2.516 -0.277,-3.899 l -3.79,-28.266 -7.871,0 -0.056,0 3.876,28.699 c 0.131,0.96 0.203,1.823 0.203,2.576 -0.006,4.331 -1.475,6.471 -4.396,6.474 -3.778,0.003 -8.085,-3.37 -12.932,-10.069 l -0.039,0.029 0.047,-0.008 -3.79,-27.701 -7.873,0 -0.054,0 3.681,27.594 c 0.192,1.379 0.277,2.578 0.277,3.586 -0.006,4.399 -1.603,6.564 -4.816,6.569 -1.53,10e-4 -3.445,-0.929 -5.746,-2.765 -2.278,-1.846 -4.521,-4.279 -6.658,-7.304 l -0.039,0.029 0.049,-0.008 -3.682,-27.701 -7.885,0 -0.054,0 5.908,43.658 7.875,0 0.055,0 L 0.047,-0.006 0,0 l 0,-0.049 -7.79,0 -5.883,-43.465 7.745,0 3.672,27.63 0.006,0.01 c 2.14,3.029 4.39,5.471 6.674,7.324 2.31,1.839 4.239,2.783 5.808,2.785 1.633,0 2.868,-0.559 3.686,-1.675 0.82,-1.117 1.227,-2.781 1.227,-4.99 0,-1.012 -0.083,-2.216 -0.277,-3.599 l -3.669,-27.485 7.735,0 3.779,27.63 0.008,0.01 c 4.855,6.706 9.173,10.106 13.01,10.109 1.489,10e-4 2.62,-0.553 3.369,-1.656 0.75,-1.1 1.124,-2.741 1.124,-4.914 0,-0.761 -0.074,-1.626 -0.205,-2.588 l -3.861,-28.591 7.735,0 3.777,28.183 c 0.169,1.38 0.275,2.639 0.275,3.886 0,3.979 -0.981,7.064 -2.941,9.167 -1.711,1.96 -3.963,2.915 -6.775,2.915 -5.274,0 -10.416,-3.279 -15.432,-9.795 l -0.068,-0.089 -0.018,0.112 c -0.94,6.51 -4.023,9.768 -9.367,9.772 -4.761,0 -9.517,-2.812 -14.233,-8.427 L -0.923,-7.829 -1.14,-7.612 -1.158,-7.596 -0.049,0.008 0,0 0,-0.049 0,0 z"
                 style="fill:#d11d24;fill-opacity:1;fill-rule:nonzero;stroke:none"
                 id="path132"
                 inkscape:connector-curvature="0" /></g><g
               id="g134"
               transform="translate(2289.3672,1001.1826)"><path
                 d="m 0,0 0.051,-0.006 -1.103,-7.555 0.173,-0.163 -0.031,-0.035 -0.036,0.03 c 4.734,5.626 9.503,8.461 14.302,8.461 5.382,0.005 8.531,-3.32 9.466,-9.854 L 22.773,-9.128 22.736,-9.1 c 5.025,6.529 10.202,9.832 15.506,9.832 2.848,0.002 5.11,-0.965 6.846,-2.946 1.982,-2.126 2.956,-5.237 2.956,-9.231 0,-1.252 -0.097,-2.516 -0.266,-3.899 l -3.777,-28.266 -7.871,0 -0.056,0 3.852,28.699 c 0.142,0.96 0.203,1.822 0.203,2.576 -0.008,4.331 -1.449,6.471 -4.359,6.474 -3.815,0.003 -8.12,-3.369 -12.957,-10.069 l -0.04,0.029 0.049,-0.008 -3.801,-27.701 -7.862,0 -0.055,0 3.694,27.594 c 0.169,1.379 0.265,2.578 0.265,3.586 -0.007,4.399 -1.602,6.564 -4.816,6.569 C 8.729,-5.86 6.789,-6.79 4.512,-8.626 2.197,-10.472 -0.009,-12.905 -2.17,-15.93 l -0.039,0.029 0.047,-0.008 -3.692,-27.701 -7.873,0 -0.055,0 5.933,43.658 7.849,0 0.058,0 L 0.051,-0.006 0,0 l 0,-0.049 -7.763,0 -5.909,-43.465 7.734,0 3.682,27.63 0.008,0.01 c 2.164,3.029 4.378,5.471 6.7,7.324 2.286,1.839 4.237,2.783 5.795,2.785 1.632,0 2.866,-0.559 3.687,-1.675 0.819,-1.117 1.224,-2.781 1.224,-4.99 0,-1.013 -0.095,-2.216 -0.265,-3.598 l -3.679,-27.486 7.724,0 3.791,27.63 0.005,0.01 c 4.844,6.706 9.162,10.106 13.036,10.109 1.482,10e-4 2.605,-0.553 3.347,-1.656 0.742,-1.1 1.107,-2.741 1.109,-4.914 0,-0.759 -0.061,-1.626 -0.205,-2.589 l -3.837,-28.59 7.734,0 3.766,28.183 c 0.168,1.38 0.263,2.639 0.263,3.886 0,3.979 -0.97,7.064 -2.927,9.167 -1.725,1.96 -3.954,2.915 -6.778,2.915 -5.262,0 -10.414,-3.279 -15.43,-9.795 l -0.072,-0.089 -0.014,0.112 c -0.94,6.51 -4.035,9.768 -9.37,9.772 -4.758,0 -9.504,-2.812 -14.23,-8.427 l -0.033,-0.039 -0.23,0.216 -0.017,0.015 1.109,7.606 L 0,0 0,-0.049 0,0 z"
                 style="fill:#d11d24;fill-opacity:1;fill-rule:nonzero;stroke:none"
                 id="path136"
                 inkscape:connector-curvature="0" /></g><g
               id="g138"
               transform="translate(2239.8252,974.8916)"><path
                 d="m 0,0 0.048,0 c 0,-3.416 0.706,-6.205 2.081,-8.321 1.352,-2.128 3.089,-3.173 5.138,-3.173 3.306,0 6.11,1.931 8.413,5.838 2.277,3.917 3.441,8.833 3.441,14.783 0,3.61 -0.661,6.533 -1.975,8.695 -1.329,2.2 -3.098,3.29 -5.352,3.292 -3.305,0 -6.074,-2.119 -8.341,-6.34 C 1.187,10.542 0.048,5.626 0.048,0 L 0,0 -0.048,0 c 0,5.64 1.141,10.572 3.416,14.82 2.274,4.236 5.076,6.391 8.426,6.391 2.287,0.001 4.097,-1.117 5.435,-3.339 1.327,-2.184 1.989,-5.122 1.989,-8.745 0,-5.962 -1.168,-10.897 -3.455,-14.832 -2.309,-3.924 -5.15,-5.887 -8.496,-5.886 -2.082,-0.001 -3.856,1.07 -5.217,3.219 C 0.66,-6.237 -0.048,-3.43 -0.048,0 L 0,0 z"
                 style="fill:#d11d24;fill-opacity:1;fill-rule:nonzero;stroke:none"
                 id="path140"
                 inkscape:connector-curvature="0" /></g><g
               id="g142"
               transform="translate(2267.0166,983.5273)"><path
                 d="m 0,0 0.048,0 c 0,-8.03 -1.875,-14.588 -5.679,-19.665 -3.788,-5.104 -8.453,-7.648 -14.006,-7.648 -4.85,0 -8.676,1.724 -11.46,5.158 -2.758,3.435 -4.167,8.263 -4.167,14.396 0,7.648 1.914,14.024 5.692,19.137 3.777,5.127 8.514,7.696 14.186,7.695 4.661,0.001 8.425,-1.761 11.219,-5.231 C -1.358,10.384 0.048,5.761 0.048,0 L 0,0 -0.048,0 c 0,5.745 -1.402,10.345 -4.192,13.781 -2.78,3.448 -6.509,5.194 -11.146,5.196 -5.64,-0.002 -10.343,-2.549 -14.108,-7.656 -3.766,-5.096 -5.671,-11.449 -5.671,-19.08 0,-6.119 1.402,-10.924 4.144,-14.334 2.765,-3.413 6.556,-5.123 11.384,-5.123 5.523,0 10.152,2.525 13.929,7.607 3.788,5.059 5.66,11.592 5.66,19.609 L 0,0 z"
                 style="fill:#d11d24;fill-opacity:1;fill-rule:nonzero;stroke:none"
                 id="path144"
                 inkscape:connector-curvature="0" /></g><g
               id="g146"
               transform="translate(2222.0859,967.3125)"><path
                 d="m 0,0 0.048,-0.005 -0.914,-7.928 -0.003,-0.023 -0.02,-0.012 c -3.707,-2.095 -7.547,-3.13 -11.553,-3.13 -5.597,-10e-4 -10.045,1.807 -13.345,5.434 -3.288,3.649 -4.961,8.538 -4.961,14.696 0,7.301 2.445,13.489 7.315,18.471 5.103,5.197 11.64,7.785 19.579,7.785 1.961,0 4.318,-0.29 7.092,-0.806 L 3.284,34.474 2.27,27.186 2.262,27.134 2.21,27.145 c -1.965,0.445 -3.968,0.672 -5.994,0.672 -5.502,0 -10.063,-1.917 -13.693,-5.727 -3.415,-3.534 -5.127,-7.724 -5.127,-12.565 0,-4.149 0.995,-7.366 3.015,-9.685 2.032,-2.308 4.765,-3.454 8.252,-3.454 3.616,0 7.389,1.197 11.311,3.654 L 0.06,0.095 0.048,-0.005 0,0 0.023,-0.041 c -3.932,-2.464 -7.723,-3.67 -11.36,-3.67 -3.507,0 -6.273,1.157 -8.324,3.487 -2.04,2.342 -3.04,5.586 -3.04,9.749 0,4.864 1.724,9.081 5.154,12.632 3.648,3.829 8.239,5.756 13.763,5.756 2.033,0 4.043,-0.228 6.015,-0.675 l -0.008,-0.046 -0.049,0.007 1.009,7.242 0.048,-0.005 -0.01,-0.048 c -2.772,0.515 -5.124,0.803 -7.075,0.803 -7.919,0 -14.424,-2.577 -19.509,-7.755 -4.856,-4.966 -7.288,-11.124 -7.288,-18.404 0,-6.141 1.667,-11.003 4.935,-14.633 3.283,-3.604 7.698,-5.4 13.274,-5.4 3.989,0 7.812,1.03 11.504,3.115 l 0.025,-0.042 -0.048,0.006 0.912,7.928 L 0,0 0.023,-0.041 0,0 z"
                 style="fill:#d11d24;fill-opacity:1;fill-rule:nonzero;stroke:none"
                 id="path148"
                 inkscape:connector-curvature="0" /></g><g
               id="g150"
               transform="translate(2157.9023,985.9658)"><path
                 d="m 0,0 0,0.048 17.318,0 0,-0.048 -0.047,0 C 17.263,6.513 14.805,9.724 9.86,9.728 5.383,9.728 2.121,6.499 0.044,-0.016 L 0,0 0,0.048 0,0 -0.047,0.015 c 2.078,6.528 5.374,9.809 9.907,9.809 2.494,0 4.379,-0.82 5.631,-2.461 C 16.744,5.721 17.365,3.266 17.365,0 l 0,-0.049 -17.433,0 0.021,0.064 L 0,0 z"
                 style="fill:#d11d24;fill-opacity:1;fill-rule:nonzero;stroke:none"
                 id="path152"
                 inkscape:connector-curvature="0" /></g><g
               id="g154"
               transform="translate(2180.7461,968.9814)"><path
                 d="M 0,0 0.045,-0.006 -1.07,-7.885 -1.073,-7.904 -1.089,-7.915 c -4.174,-3.226 -8.788,-4.852 -13.817,-4.852 -5.247,-0.001 -9.458,1.942 -12.613,5.794 -3.192,3.855 -4.766,8.96 -4.766,15.297 0,7.143 1.9,13.136 5.667,17.986 3.8,4.861 8.455,7.31 13.993,7.309 4.182,10e-4 7.694,-1.701 10.486,-5.062 2.809,-3.362 4.215,-7.782 4.215,-13.243 0,-1.359 -0.084,-2.718 -0.277,-4.054 l -0.004,-0.04 -25.828,0 0,0.048 0.047,-0.009 c -0.252,-1.511 -0.371,-2.89 -0.371,-4.196 0,-4.123 1.125,-7.365 3.384,-9.756 2.034,-2.116 4.529,-3.166 7.533,-3.166 3.837,0 8.31,1.937 13.41,5.898 L 0.045,-0.006 0,0 0.029,-0.037 c -5.111,-3.968 -9.598,-5.919 -13.469,-5.919 -3.027,0 -5.552,1.062 -7.602,3.198 -2.28,2.411 -3.412,5.681 -3.412,9.821 0,1.312 0.12,2.697 0.372,4.212 l 0.006,0.039 25.828,0 0,-0.046 -0.048,0.005 c 0.193,1.331 0.276,2.686 0.276,4.041 0,5.445 -1.401,9.84 -4.192,13.182 -2.779,3.34 -6.258,5.026 -10.413,5.026 -5.51,-10e-4 -10.129,-2.428 -13.916,-7.271 -3.754,-4.832 -5.647,-10.8 -5.647,-17.927 0,-6.321 1.569,-11.402 4.744,-15.235 3.139,-3.831 7.313,-5.759 12.538,-5.759 5.01,0 9.598,1.617 13.758,4.829 L -1.119,-7.877 -1.166,-7.871 -0.05,0.008 0,0 0.029,-0.037 0,0 z"
                 style="fill:#d11d24;fill-opacity:1;fill-rule:nonzero;stroke:none"
                 id="path156"
                 inkscape:connector-curvature="0" /></g><g
               id="g158"
               transform="translate(2142.6357,1023.7744)"><path
                 d="m 0,0 0.048,-0.007 -8.847,-66.195 -7.872,0 -0.056,0 8.854,66.251 7.873,0 0.054,0 L 0.048,-0.007 0,0 l 0,-0.048 -7.79,0 -8.826,-66.057 7.734,0 L -0.047,0.007 0,0 0,-0.048 0,0 z"
                 style="fill:#d11d24;fill-opacity:1;fill-rule:nonzero;stroke:none"
                 id="path160"
                 inkscape:connector-curvature="0" /></g><g
               id="g162"
               transform="translate(2092.5508,985.9658)"><path
                 d="m 0,0 0,0.048 17.308,0 0,-0.048 -0.048,0 C 17.252,6.513 14.807,9.724 9.848,9.728 5.396,9.728 2.137,6.499 0.046,-0.016 L 0,0 0,0.048 0,0 -0.044,0.015 c 2.088,6.528 5.385,9.809 9.892,9.809 2.504,0 4.386,-0.82 5.636,-2.461 C 16.736,5.721 17.356,3.266 17.356,0 l 0,-0.049 -17.421,0 0.021,0.064 L 0,0 z"
                 style="fill:#d11d24;fill-opacity:1;fill-rule:nonzero;stroke:none"
                 id="path164"
                 inkscape:connector-curvature="0" /></g><g
               id="g166"
               transform="translate(2115.3955,968.9814)"><path
                 d="m 0,0 0.047,-0.006 -1.106,-7.879 -0.003,-0.019 -0.014,-0.011 c -4.174,-3.226 -8.81,-4.852 -13.854,-4.852 -5.235,-0.001 -9.432,1.942 -12.623,5.794 -3.156,3.855 -4.757,8.959 -4.757,15.297 0,7.143 1.914,13.136 5.694,17.986 3.787,4.861 8.441,7.31 13.993,7.309 4.192,10e-4 7.706,-1.701 10.497,-5.062 2.796,-3.362 4.192,-7.782 4.192,-13.243 0,-1.359 -0.096,-2.718 -0.265,-4.054 l -0.005,-0.04 -25.842,0 0,0.048 0.047,-0.009 c -0.25,-1.511 -0.371,-2.89 -0.371,-4.196 0,-4.123 1.149,-7.363 3.399,-9.756 2.021,-2.116 4.517,-3.166 7.507,-3.166 3.852,0 8.346,1.937 13.434,5.898 L 0.047,-0.006 0,0 0.029,-0.037 c -5.096,-3.968 -9.609,-5.919 -13.493,-5.919 -3.015,0 -5.539,1.062 -7.576,3.198 -2.268,2.411 -3.426,5.681 -3.426,9.821 0,1.312 0.12,2.697 0.373,4.212 l 0.007,0.039 25.84,0 0,-0.046 -0.048,0.005 c 0.167,1.331 0.264,2.686 0.264,4.041 0,5.445 -1.392,9.84 -4.168,13.182 -2.78,3.34 -6.258,5.026 -10.425,5.026 -5.523,-10e-4 -10.141,-2.428 -13.92,-7.271 -3.763,-4.832 -5.67,-10.8 -5.67,-17.927 0,-6.321 1.596,-11.402 4.734,-15.235 3.175,-3.831 7.335,-5.759 12.549,-5.759 5.023,0 9.634,1.617 13.794,4.829 l 0.032,-0.036 -0.049,0.006 1.105,7.879 L 0,0 0.029,-0.037 0,0 z"
                 style="fill:#d11d24;fill-opacity:1;fill-rule:nonzero;stroke:none"
                 id="path168"
                 inkscape:connector-curvature="0" /></g><g
               id="g170"
               transform="translate(2080.1318,1023.7744)"><path
                 d="m 0,0 0.049,-0.007 -1.106,-8.25 -0.005,-0.041 -17.68,0 -7.746,-57.904 -8.702,0 -0.055,0 7.748,57.902 -17.693,0.002 1.113,8.305 0.006,0.042 44.126,0 L 0.049,-0.007 0,0 l 0,-0.048 -43.988,0 -1.092,-8.155 17.69,0 -7.745,-57.902 8.562,0 7.747,57.902 17.679,0 1.101,8.21 L 0,0 0,-0.048 0,0 z"
                 style="fill:#d11d24;fill-opacity:1;fill-rule:nonzero;stroke:none"
                 id="path172"
                 inkscape:connector-curvature="0" /></g></g></g><g
           id="g3231"
           transform="translate(-28.956388,-3.3961398e-6)"><g
             transform="translate(584.4497,1341.2246)"
             id="g174"><path
               inkscape:connector-curvature="0"
               id="path176"
               style="fill:#d11d24;fill-opacity:1;fill-rule:evenodd;stroke:none"
               d="m 0,0 c -23.874,0 -42.744,-19.842 -42.744,-46.389 0,-25.151 18.87,-46.341 42.744,-46.341 25.175,0 44.068,21.19 44.068,46.341 C 44.068,-19.842 25.175,0 0,0" /></g><g
             transform="translate(584.4497,1085.1621)"
             id="g178"><path
               inkscape:connector-curvature="0"
               id="path180"
               style="fill:#d11d24;fill-opacity:1;fill-rule:evenodd;stroke:none"
               d="m 0,0 c -23.874,0 -42.744,-19.912 -42.744,-46.399 0,-25.138 18.87,-46.327 42.744,-46.327 25.175,0 44.068,21.189 44.068,46.327 C 44.068,-19.912 25.175,0 0,0" /></g><g
             transform="translate(1070.8022,1084.2998)"
             id="g182"><path
               inkscape:connector-curvature="0"
               id="path184"
               style="fill:#d11d24;fill-opacity:1;fill-rule:evenodd;stroke:none"
               d="m 0,0 c -23.839,0 -42.78,-19.914 -42.78,-46.327 0,-25.212 18.941,-46.414 42.78,-46.414 25.174,0 44.043,21.202 44.043,46.414 C 44.043,-19.914 25.174,0 0,0" /></g><g
             transform="translate(1070.8022,1341.2246)"
             id="g186"><path
               inkscape:connector-curvature="0"
               id="path188"
               style="fill:#d11d24;fill-opacity:1;fill-rule:evenodd;stroke:none"
               d="m 0,0 c -23.839,0 -42.78,-19.842 -42.78,-46.389 0,-25.151 18.941,-46.341 42.78,-46.341 25.174,0 44.043,21.19 44.043,46.341 C 44.043,-19.842 25.174,0 0,0" /></g><g
             transform="translate(585.1064,1217.6343)"
             id="g190"><path
               inkscape:connector-curvature="0"
               id="path192"
               style="fill:#d11d24;fill-opacity:1;fill-rule:evenodd;stroke:none"
               d="m 0,0 c -26.572,0 -48.188,-22.842 -48.188,-50.775 0,-28.065 21.616,-50.763 48.188,-50.763 26.595,0 48.186,22.698 48.186,50.763 C 48.186,-22.842 26.595,0 0,0" /></g><g
             transform="translate(1071.4463,1217.9863)"
             id="g194"><path
               inkscape:connector-curvature="0"
               id="path196"
               style="fill:#d11d24;fill-opacity:1;fill-rule:evenodd;stroke:none"
               d="m 0,0 c 26.571,0 48.186,-22.696 48.186,-50.774 0,-27.932 -21.615,-51.625 -48.186,-51.625 -26.633,0 -48.188,23.693 -48.188,51.625 C -48.188,-22.696 -26.633,0 0,0" /></g><g
             transform="translate(828.2754,1099.5479)"
             id="g198"><path
               inkscape:connector-curvature="0"
               id="path200"
               style="fill:#d11d24;fill-opacity:1;fill-rule:evenodd;stroke:none"
               d="m 0,0 c 32.405,0 58.15,-27.069 58.15,-60.286 0,-34.154 -25.745,-61.299 -58.15,-61.299 -31.577,0 -58.138,27.145 -58.138,61.299 C -58.138,-27.069 -31.577,0 0,0" /></g><g
             transform="translate(828.2754,1355.7549)"
             id="g202"><path
               inkscape:connector-curvature="0"
               id="path204"
               style="fill:#d11d24;fill-opacity:1;fill-rule:evenodd;stroke:none"
               d="m 0,0 c 32.405,0 58.15,-27.203 58.15,-60.494 0,-34.093 -25.745,-61.163 -58.15,-61.163 -31.577,0 -58.138,27.07 -58.138,61.163 C -58.138,-27.203 -31.577,0 0,0" /></g><g
             transform="translate(585.4941,941.3818)"
             id="g206"><path
               inkscape:connector-curvature="0"
               id="path208"
               style="fill:#d11d24;fill-opacity:1;fill-rule:evenodd;stroke:none"
               d="m 0,0 c -16.646,0 -29.038,-14.036 -29.038,-30.644 0,-16.622 12.392,-30.654 29.038,-30.654 15.796,0 28.322,14.032 28.322,30.654 C 28.322,-14.036 15.796,0 0,0" /></g><g
             transform="translate(1071.4463,880.084)"
             id="g210"><path
               inkscape:connector-curvature="0"
               id="path212"
               style="fill:#d11d24;fill-opacity:1;fill-rule:evenodd;stroke:none"
               d="M 0,0 C 15.783,0 29.073,13.169 29.073,30.642 29.073,47.263 15.783,61.298 0,61.298 -15.832,61.298 -29.149,47.263 -29.149,30.642 -29.149,13.169 -15.832,0 0,0" /></g><g
             transform="translate(1071.4463,1453.1499)"
             id="g214"><path
               inkscape:connector-curvature="0"
               id="path216"
               style="fill:#d11d24;fill-opacity:1;fill-rule:evenodd;stroke:none"
               d="m 0,0 c 15.783,0 29.073,-13.11 29.073,-30.643 0,-16.62 -13.29,-29.804 -29.073,-29.804 -15.832,0 -29.149,13.184 -29.149,29.804 C -29.149,-13.11 -15.832,0 0,0" /></g><g
             transform="translate(585.1064,1453.1499)"
             id="g218"><path
               inkscape:connector-curvature="0"
               id="path220"
               style="fill:#d11d24;fill-opacity:1;fill-rule:evenodd;stroke:none"
               d="m 0,0 c -15.832,0 -29.075,-13.11 -29.075,-29.792 0,-17.471 13.243,-30.655 29.075,-30.655 15.819,0 29.111,13.184 29.111,30.655 C 29.111,-13.11 15.819,0 0,0" /></g><g
             transform="translate(828.2754,1473.6958)"
             id="g222"><path
               inkscape:connector-curvature="0"
               id="path224"
               style="fill:#d11d24;fill-opacity:1;fill-rule:evenodd;stroke:none"
               d="m 0,0 c 26.572,0 48.187,-22.771 48.187,-50.775 0,-27.995 -21.615,-50.764 -48.187,-50.764 -26.572,0 -48.186,22.769 -48.186,50.764 C -48.186,-22.771 -26.572,0 0,0" /></g><g
             transform="translate(828.2754,859.9619)"
             id="g226"><path
               inkscape:connector-curvature="0"
               id="path228"
               style="fill:#d11d24;fill-opacity:1;fill-rule:evenodd;stroke:none"
               d="M 0,0 C 26.572,0 48.187,22.769 48.187,50.776 48.187,78.77 26.572,101.539 0,101.539 -26.572,101.539 -48.186,78.77 -48.186,50.776 -48.186,22.769 -26.572,0 0,0" /></g><g
             transform="translate(827.6318,829.0293)"
             id="g230"><path
               inkscape:connector-curvature="0"
               id="path232"
               style="fill:#d11d24;fill-opacity:1;fill-rule:evenodd;stroke:none"
               d="m 0,0 c -23.923,0 -42.78,-19.84 -42.78,-46.329 0,-25.138 18.857,-46.4 42.78,-46.4 25.163,0 44.043,21.262 44.043,46.4 C 44.043,-19.84 25.163,0 0,0" /></g><g
             transform="translate(827.6318,1597.3584)"
             id="g234"><path
               inkscape:connector-curvature="0"
               id="path236"
               style="fill:#d11d24;fill-opacity:1;fill-rule:evenodd;stroke:none"
               d="m 0,0 c -23.923,0 -42.78,-19.902 -42.78,-46.401 0,-25.139 18.857,-46.329 42.78,-46.329 25.163,0 44.043,21.19 44.043,46.329 C 44.043,-19.902 25.163,0 0,0" /></g><g
             transform="translate(828.2754,1707.4854)"
             id="g238"><path
               inkscape:connector-curvature="0"
               id="path240"
               style="fill:#d11d24;fill-opacity:1;fill-rule:evenodd;stroke:none"
               d="M 0,0 C 15.25,0 26.997,-12.454 26.997,-28.503 26.997,-44.542 15.25,-56.936 0,-56.936 c -15.285,0 -26.997,12.394 -26.997,28.433 C -26.997,-12.454 -15.285,0 0,0" /></g><g
             transform="translate(828.2754,683.0967)"
             id="g242"><path
               inkscape:connector-curvature="0"
               id="path244"
               style="fill:#d11d24;fill-opacity:1;fill-rule:evenodd;stroke:none"
               d="m 0,0 c 15.25,0 26.997,-12.32 26.997,-28.432 0,-16.038 -11.747,-28.43 -26.997,-28.43 -15.285,0 -26.997,12.392 -26.997,28.43 C -26.997,-12.32 -15.285,0 0,0" /></g><g
             transform="translate(1314.5908,1195.29)"
             id="g246"><path
               inkscape:connector-curvature="0"
               id="path248"
               style="fill:#d11d24;fill-opacity:1;fill-rule:evenodd;stroke:none"
               d="m 0,0 c 15.212,0 26.997,-12.393 26.997,-28.431 0,-16.11 -11.785,-28.505 -26.997,-28.505 -15.285,0 -27.033,12.395 -27.033,28.505 C -27.033,-12.393 -15.285,0 0,0" /></g><g
             transform="translate(1192.3618,1213.1992)"
             id="g250"><path
               inkscape:connector-curvature="0"
               id="path252"
               style="fill:#d11d24;fill-opacity:1;fill-rule:evenodd;stroke:none"
               d="m 0,0 c -23.911,0 -42.72,-19.914 -42.72,-46.327 0,-25.213 18.809,-46.414 42.72,-46.414 25.175,0 44.105,21.201 44.105,46.414 C 44.105,-19.914 25.175,0 0,0" /></g><g
             transform="translate(827.7773,1233.7324)"
             id="g254"><path
               inkscape:connector-curvature="0"
               id="path256"
               style="fill:#d11d24;fill-opacity:1;fill-rule:evenodd;stroke:none"
               d="m 0,0 c 35.442,0 63.581,-30.569 63.581,-66.873 0,-37.3 -28.139,-66.958 -63.581,-66.958 -34.445,0 -62.584,29.658 -62.584,66.958 C -62.584,-30.569 -34.445,0 0,0" /></g><g
             transform="translate(949.8247,1581.1733)"
             id="g258"><path
               inkscape:connector-curvature="0"
               id="path260"
               style="fill:#d11d24;fill-opacity:1;fill-rule:evenodd;stroke:none"
               d="m 0,0 c 15.831,0 29.111,-13.17 29.111,-30.643 0,-16.692 -13.28,-29.718 -29.111,-29.718 -15.783,0 -29.039,13.026 -29.039,29.718 C -29.039,-13.17 -15.783,0 0,0" /></g><g
             transform="translate(950.2861,1463.5986)"
             id="g262"><path
               inkscape:connector-curvature="0"
               id="path264"
               style="fill:#d11d24;fill-opacity:1;fill-rule:evenodd;stroke:none"
               d="m 0,0 c 21.553,0 38.211,-18.334 38.211,-41.104 0,-22.697 -16.658,-40.24 -38.211,-40.24 -21.627,0 -39.099,17.543 -39.099,40.24 C -39.099,-18.334 -21.627,0 0,0" /></g><g
             transform="translate(948.7178,1346.084)"
             id="g266"><path
               inkscape:connector-curvature="0"
               id="path268"
               style="fill:#d11d24;fill-opacity:1;fill-rule:evenodd;stroke:none"
               d="m 0,0 c 26.537,0 48.15,-22.757 48.15,-50.836 0,-27.92 -21.613,-51.625 -48.15,-51.625 -26.633,0 -48.186,23.705 -48.186,51.625 C -48.186,-22.757 -26.633,0 0,0" /></g><g
             transform="translate(949.8247,1227.6577)"
             id="g270"><path
               inkscape:connector-curvature="0"
               id="path272"
               style="fill:#d11d24;fill-opacity:1;fill-rule:evenodd;stroke:none"
               d="m 0,0 c 32.477,0 58.246,-27.143 58.246,-60.446 0,-33.997 -25.769,-61.222 -58.246,-61.222 -31.542,0 -58.114,27.225 -58.114,61.222 C -58.114,-27.143 -31.542,0 0,0" /></g><g
             transform="translate(706.728,1581.6113)"
             id="g274"><path
               inkscape:connector-curvature="0"
               id="path276"
               style="fill:#d11d24;fill-opacity:1;fill-rule:evenodd;stroke:none"
               d="m 0,0 c -15.832,0 -29.076,-13.96 -29.076,-30.642 0,-17.472 13.244,-30.655 29.076,-30.655 15.783,0 29.039,13.183 29.039,30.655 C 29.039,-13.96 15.783,0 0,0" /></g><g
             transform="translate(707.1172,1463.5986)"
             id="g278"><path
               inkscape:connector-curvature="0"
               id="path280"
               style="fill:#d11d24;fill-opacity:1;fill-rule:evenodd;stroke:none"
               d="m 0,0 c -21.628,0 -39.1,-18.334 -39.1,-41.104 0,-21.845 17.472,-40.24 39.1,-40.24 20.763,0 38.235,18.395 38.235,40.24 C 38.235,-18.334 20.763,0 0,0" /></g><g
             transform="translate(707.1172,1345.6577)"
             id="g282"><path
               inkscape:connector-curvature="0"
               id="path284"
               style="fill:#d11d24;fill-opacity:1;fill-rule:evenodd;stroke:none"
               d="m 0,0 c -26.634,0 -49.051,-22.769 -49.051,-50.834 0,-27.921 22.417,-50.69 49.051,-50.69 26.571,0 48.186,22.769 48.186,50.69 C 48.186,-22.769 26.571,0 0,0" /></g><g
             transform="translate(707.1172,1228.084)"
             id="g286"><path
               inkscape:connector-curvature="0"
               id="path288"
               style="fill:#d11d24;fill-opacity:1;fill-rule:evenodd;stroke:none"
               d="m 0,0 c -32.442,0 -58.187,-28.006 -58.187,-61.225 0,-34.166 25.745,-61.297 58.187,-61.297 31.576,0 57.286,27.131 57.286,61.297 C 57.286,-28.006 31.576,0 0,0" /></g><g
             transform="translate(949.8247,752.0479)"
             id="g290"><path
               inkscape:connector-curvature="0"
               id="path292"
               style="fill:#d11d24;fill-opacity:1;fill-rule:evenodd;stroke:none"
               d="M 0,0 C 15.831,0 29.111,13.183 29.111,30.641 29.111,47.263 15.831,61.294 0,61.294 -15.783,61.294 -29.039,47.263 -29.039,30.641 -29.039,13.183 -15.783,0 0,0" /></g><g
             transform="translate(950.2861,869.9873)"
             id="g294"><path
               inkscape:connector-curvature="0"
               id="path296"
               style="fill:#d11d24;fill-opacity:1;fill-rule:evenodd;stroke:none"
               d="M 0,0 C 21.553,0 38.211,17.545 38.211,40.313 38.211,63.082 21.553,81.488 0,81.488 -21.627,81.488 -39.099,63.082 -39.099,40.313 -39.099,17.545 -21.627,0 0,0" /></g><g
             transform="translate(949.8247,987.5518)"
             id="g298"><path
               inkscape:connector-curvature="0"
               id="path300"
               style="fill:#d11d24;fill-opacity:1;fill-rule:evenodd;stroke:none"
               d="m 0,0 c 26.669,0 48.223,22.707 48.223,51.71 0,27.992 -21.554,50.688 -48.223,50.688 -26.572,0 -48.151,-22.696 -48.151,-50.688 C -48.151,22.707 -26.572,0 0,0" /></g><g
             transform="translate(706.728,752.4854)"
             id="g302"><path
               inkscape:connector-curvature="0"
               id="path304"
               style="fill:#d11d24;fill-opacity:1;fill-rule:evenodd;stroke:none"
               d="m 0,0 c -15.832,0 -29.076,13.169 -29.076,29.779 0,17.556 13.244,30.656 29.076,30.656 15.783,0 29.039,-13.1 29.039,-30.656 C 29.039,13.169 15.783,0 0,0" /></g><g
             transform="translate(710.2021,869.9873)"
             id="g306"><path
               inkscape:connector-curvature="0"
               id="path308"
               style="fill:#d11d24;fill-opacity:1;fill-rule:evenodd;stroke:none"
               d="m 0,0 c -21.59,0 -39.026,18.406 -39.026,41.175 0,21.907 17.436,40.313 39.026,40.313 20.765,0 38.2,-18.406 38.2,-40.313 C 38.2,18.406 20.765,0 0,0" /></g><g
             transform="translate(707.1172,988.001)"
             id="g310"><path
               inkscape:connector-curvature="0"
               id="path312"
               style="fill:#d11d24;fill-opacity:1;fill-rule:evenodd;stroke:none"
               d="m 0,0 c -26.634,0 -49.051,22.77 -49.051,50.762 0,27.992 22.417,50.76 49.051,50.76 26.571,0 48.186,-22.768 48.186,-50.76 C 48.186,22.77 26.571,0 0,0" /></g><g
             transform="translate(463.5454,1325.04)"
             id="g314"><path
               inkscape:connector-curvature="0"
               id="path316"
               style="fill:#d11d24;fill-opacity:1;fill-rule:evenodd;stroke:none"
               d="m 0,0 c -15.782,0 -29.112,-13.098 -29.112,-29.779 0,-17.485 13.33,-30.582 29.112,-30.582 15.795,0 29.075,13.097 29.075,30.582 C 29.075,-13.098 15.795,0 0,0" /></g><g
             transform="translate(341.9238,1195.29)"
             id="g318"><path
               inkscape:connector-curvature="0"
               id="path320"
               style="fill:#d11d24;fill-opacity:1;fill-rule:evenodd;stroke:none"
               d="m 0,0 c 15.322,0 27.034,-12.393 27.034,-28.431 0,-16.11 -11.712,-28.505 -27.034,-28.505 -15.211,0 -26.997,12.395 -26.997,28.505 C -26.997,-12.393 -15.211,0 0,0" /></g><g
             transform="translate(463.9463,1069.4043)"
             id="g322"><path
               inkscape:connector-curvature="0"
               id="path324"
               style="fill:#d11d24;fill-opacity:1;fill-rule:evenodd;stroke:none"
               d="m 0,0 c -16.621,0 -29.075,-13.948 -29.075,-30.642 0,-16.621 12.454,-30.583 29.075,-30.583 15.819,0 28.249,13.962 28.249,30.583 C 28.249,-13.948 15.819,0 0,0" /></g><g
             transform="translate(462.9014,1213.1992)"
             id="g326"><path
               inkscape:connector-curvature="0"
               id="path328"
               style="fill:#d11d24;fill-opacity:1;fill-rule:evenodd;stroke:none"
               d="m 0,0 c -23.875,0 -42.779,-19.914 -42.779,-46.327 0,-25.213 18.904,-46.414 42.779,-46.414 25.175,0 44.008,21.201 44.008,46.414 C 44.008,-19.914 25.175,0 0,0" /></g><g
             transform="translate(1193.0059,1325.04)"
             id="g330"><path
               inkscape:connector-curvature="0"
               id="path332"
               style="fill:#d11d24;fill-opacity:1;fill-rule:evenodd;stroke:none"
               d="m 0,0 c 15.782,0 29.112,-13.098 29.112,-29.779 0,-17.485 -13.33,-30.582 -29.112,-30.582 -16.657,0 -29.074,13.097 -29.074,30.582 C -29.074,-13.098 -16.657,0 0,0" /></g><g
             transform="translate(1193.0059,1069.4043)"
             id="g334"><path
               inkscape:connector-curvature="0"
               id="path336"
               style="fill:#d11d24;fill-opacity:1;fill-rule:evenodd;stroke:none"
               d="m 0,0 c 15.782,0 29.112,-13.948 29.112,-30.642 0,-16.621 -13.33,-30.583 -29.112,-30.583 -15.795,0 -29.074,13.962 -29.074,30.583 C -29.074,-13.948 -15.795,0 0,0" /></g><g
             transform="translate(584.4497,1341.2246)"
             id="g338"><path
               inkscape:connector-curvature="0"
               id="path340"
               style="fill:#d11d24;fill-opacity:1;fill-rule:nonzero;stroke:none"
               d="m 0,0 c -23.874,0 -42.744,-19.842 -42.744,-46.389 0,-25.151 18.87,-46.341 42.744,-46.341 25.175,0 44.068,21.19 44.068,46.341 C 44.068,-19.842 25.175,0 0,0" /></g><g
             transform="translate(584.4497,1085.1621)"
             id="g342"><path
               inkscape:connector-curvature="0"
               id="path344"
               style="fill:#d11d24;fill-opacity:1;fill-rule:nonzero;stroke:none"
               d="m 0,0 c -23.874,0 -42.744,-19.912 -42.744,-46.399 0,-25.138 18.87,-46.327 42.744,-46.327 25.175,0 44.068,21.189 44.068,46.327 C 44.068,-19.912 25.175,0 0,0" /></g><g
             transform="translate(1070.8022,1084.2998)"
             id="g346"><path
               inkscape:connector-curvature="0"
               id="path348"
               style="fill:#d11d24;fill-opacity:1;fill-rule:nonzero;stroke:none"
               d="m 0,0 c -23.839,0 -42.78,-19.914 -42.78,-46.327 0,-25.212 18.941,-46.414 42.78,-46.414 25.174,0 44.043,21.202 44.043,46.414 C 44.043,-19.914 25.174,0 0,0" /></g><g
             transform="translate(1070.8022,1341.2246)"
             id="g350"><path
               inkscape:connector-curvature="0"
               id="path352"
               style="fill:#d11d24;fill-opacity:1;fill-rule:nonzero;stroke:none"
               d="m 0,0 c -23.839,0 -42.78,-19.842 -42.78,-46.389 0,-25.151 18.941,-46.341 42.78,-46.341 25.174,0 44.043,21.19 44.043,46.341 C 44.043,-19.842 25.174,0 0,0" /></g><g
             transform="translate(585.1064,1217.6343)"
             id="g354"><path
               inkscape:connector-curvature="0"
               id="path356"
               style="fill:#d11d24;fill-opacity:1;fill-rule:nonzero;stroke:none"
               d="m 0,0 c -26.572,0 -48.188,-22.842 -48.188,-50.775 0,-28.065 21.616,-50.763 48.188,-50.763 26.595,0 48.186,22.698 48.186,50.763 C 48.186,-22.842 26.595,0 0,0" /></g><g
             transform="translate(1071.4463,1217.9863)"
             id="g358"><path
               inkscape:connector-curvature="0"
               id="path360"
               style="fill:#d11d24;fill-opacity:1;fill-rule:nonzero;stroke:none"
               d="m 0,0 c 26.571,0 48.186,-22.696 48.186,-50.774 0,-27.932 -21.615,-51.625 -48.186,-51.625 -26.633,0 -48.188,23.693 -48.188,51.625 C -48.188,-22.696 -26.633,0 0,0" /></g><g
             transform="translate(828.2754,1099.5479)"
             id="g362"><path
               inkscape:connector-curvature="0"
               id="path364"
               style="fill:#d11d24;fill-opacity:1;fill-rule:nonzero;stroke:none"
               d="m 0,0 c 32.405,0 58.15,-27.069 58.15,-60.286 0,-34.154 -25.745,-61.299 -58.15,-61.299 -31.577,0 -58.138,27.145 -58.138,61.299 C -58.138,-27.069 -31.577,0 0,0" /></g><g
             transform="translate(828.2754,1355.7549)"
             id="g366"><path
               inkscape:connector-curvature="0"
               id="path368"
               style="fill:#d11d24;fill-opacity:1;fill-rule:nonzero;stroke:none"
               d="m 0,0 c 32.405,0 58.15,-27.203 58.15,-60.494 0,-34.093 -25.745,-61.163 -58.15,-61.163 -31.577,0 -58.138,27.07 -58.138,61.163 C -58.138,-27.203 -31.577,0 0,0" /></g><g
             transform="translate(585.4941,941.3818)"
             id="g370"><path
               inkscape:connector-curvature="0"
               id="path372"
               style="fill:#d11d24;fill-opacity:1;fill-rule:nonzero;stroke:none"
               d="m 0,0 c -16.646,0 -29.038,-14.036 -29.038,-30.644 0,-16.622 12.392,-30.654 29.038,-30.654 15.796,0 28.322,14.032 28.322,30.654 C 28.322,-14.036 15.796,0 0,0" /></g><g
             transform="translate(1071.4463,880.084)"
             id="g374"><path
               inkscape:connector-curvature="0"
               id="path376"
               style="fill:#d11d24;fill-opacity:1;fill-rule:nonzero;stroke:none"
               d="M 0,0 C 15.783,0 29.073,13.169 29.073,30.642 29.073,47.263 15.783,61.298 0,61.298 -15.832,61.298 -29.149,47.263 -29.149,30.642 -29.149,13.169 -15.832,0 0,0" /></g><g
             transform="translate(1071.4463,1453.1499)"
             id="g378"><path
               inkscape:connector-curvature="0"
               id="path380"
               style="fill:#d11d24;fill-opacity:1;fill-rule:nonzero;stroke:none"
               d="m 0,0 c 15.783,0 29.073,-13.11 29.073,-30.643 0,-16.62 -13.29,-29.804 -29.073,-29.804 -15.832,0 -29.149,13.184 -29.149,29.804 C -29.149,-13.11 -15.832,0 0,0" /></g><g
             transform="translate(585.1064,1453.1499)"
             id="g382"><path
               inkscape:connector-curvature="0"
               id="path384"
               style="fill:#d11d24;fill-opacity:1;fill-rule:nonzero;stroke:none"
               d="m 0,0 c -15.832,0 -29.075,-13.11 -29.075,-29.792 0,-17.471 13.243,-30.655 29.075,-30.655 15.819,0 29.111,13.184 29.111,30.655 C 29.111,-13.11 15.819,0 0,0" /></g><g
             transform="translate(828.2754,1473.6958)"
             id="g386"><path
               inkscape:connector-curvature="0"
               id="path388"
               style="fill:#d11d24;fill-opacity:1;fill-rule:nonzero;stroke:none"
               d="m 0,0 c 26.572,0 48.187,-22.771 48.187,-50.775 0,-27.995 -21.615,-50.764 -48.187,-50.764 -26.572,0 -48.186,22.769 -48.186,50.764 C -48.186,-22.771 -26.572,0 0,0" /></g><g
             transform="translate(828.2754,859.9619)"
             id="g390"><path
               inkscape:connector-curvature="0"
               id="path392"
               style="fill:#d11d24;fill-opacity:1;fill-rule:nonzero;stroke:none"
               d="M 0,0 C 26.572,0 48.187,22.769 48.187,50.776 48.187,78.77 26.572,101.539 0,101.539 -26.572,101.539 -48.186,78.77 -48.186,50.776 -48.186,22.769 -26.572,0 0,0" /></g><g
             transform="translate(827.6318,829.0293)"
             id="g394"><path
               inkscape:connector-curvature="0"
               id="path396"
               style="fill:#d11d24;fill-opacity:1;fill-rule:nonzero;stroke:none"
               d="m 0,0 c -23.923,0 -42.78,-19.84 -42.78,-46.329 0,-25.138 18.857,-46.4 42.78,-46.4 25.163,0 44.043,21.262 44.043,46.4 C 44.043,-19.84 25.163,0 0,0" /></g><g
             transform="translate(827.6318,1597.3584)"
             id="g398"><path
               inkscape:connector-curvature="0"
               id="path400"
               style="fill:#d11d24;fill-opacity:1;fill-rule:nonzero;stroke:none"
               d="m 0,0 c -23.923,0 -42.78,-19.902 -42.78,-46.401 0,-25.139 18.857,-46.329 42.78,-46.329 25.163,0 44.043,21.19 44.043,46.329 C 44.043,-19.902 25.163,0 0,0" /></g><g
             transform="translate(828.2754,1707.4854)"
             id="g402"><path
               inkscape:connector-curvature="0"
               id="path404"
               style="fill:#d11d24;fill-opacity:1;fill-rule:nonzero;stroke:none"
               d="M 0,0 C 15.25,0 26.997,-12.454 26.997,-28.503 26.997,-44.542 15.25,-56.936 0,-56.936 c -15.285,0 -26.997,12.394 -26.997,28.433 C -26.997,-12.454 -15.285,0 0,0" /></g><g
             transform="translate(828.2754,683.0967)"
             id="g406"><path
               inkscape:connector-curvature="0"
               id="path408"
               style="fill:#d11d24;fill-opacity:1;fill-rule:nonzero;stroke:none"
               d="m 0,0 c 15.25,0 26.997,-12.32 26.997,-28.432 0,-16.038 -11.747,-28.43 -26.997,-28.43 -15.285,0 -26.997,12.392 -26.997,28.43 C -26.997,-12.32 -15.285,0 0,0" /></g><g
             transform="translate(1314.5908,1195.29)"
             id="g410"><path
               inkscape:connector-curvature="0"
               id="path412"
               style="fill:#d11d24;fill-opacity:1;fill-rule:nonzero;stroke:none"
               d="m 0,0 c 15.212,0 26.997,-12.393 26.997,-28.431 0,-16.11 -11.785,-28.505 -26.997,-28.505 -15.285,0 -27.033,12.395 -27.033,28.505 C -27.033,-12.393 -15.285,0 0,0" /></g><g
             transform="translate(1192.3618,1213.1992)"
             id="g414"><path
               inkscape:connector-curvature="0"
               id="path416"
               style="fill:#d11d24;fill-opacity:1;fill-rule:nonzero;stroke:none"
               d="m 0,0 c -23.911,0 -42.72,-19.914 -42.72,-46.327 0,-25.213 18.809,-46.414 42.72,-46.414 25.175,0 44.105,21.201 44.105,46.414 C 44.105,-19.914 25.175,0 0,0" /></g><g
             transform="translate(827.7773,1233.7324)"
             id="g418"><path
               inkscape:connector-curvature="0"
               id="path420"
               style="fill:#d11d24;fill-opacity:1;fill-rule:nonzero;stroke:none"
               d="m 0,0 c 35.442,0 63.581,-30.569 63.581,-66.873 0,-37.3 -28.139,-66.958 -63.581,-66.958 -34.445,0 -62.584,29.658 -62.584,66.958 C -62.584,-30.569 -34.445,0 0,0" /></g><g
             transform="translate(949.8247,1581.1733)"
             id="g422"><path
               inkscape:connector-curvature="0"
               id="path424"
               style="fill:#d11d24;fill-opacity:1;fill-rule:nonzero;stroke:none"
               d="m 0,0 c 15.831,0 29.111,-13.17 29.111,-30.643 0,-16.692 -13.28,-29.718 -29.111,-29.718 -15.783,0 -29.039,13.026 -29.039,29.718 C -29.039,-13.17 -15.783,0 0,0" /></g><g
             transform="translate(950.2861,1463.5986)"
             id="g426"><path
               inkscape:connector-curvature="0"
               id="path428"
               style="fill:#d11d24;fill-opacity:1;fill-rule:nonzero;stroke:none"
               d="m 0,0 c 21.553,0 38.211,-18.334 38.211,-41.104 0,-22.697 -16.658,-40.24 -38.211,-40.24 -21.627,0 -39.099,17.543 -39.099,40.24 C -39.099,-18.334 -21.627,0 0,0" /></g><g
             transform="translate(948.7178,1346.084)"
             id="g430"><path
               inkscape:connector-curvature="0"
               id="path432"
               style="fill:#d11d24;fill-opacity:1;fill-rule:nonzero;stroke:none"
               d="m 0,0 c 26.537,0 48.15,-22.757 48.15,-50.836 0,-27.92 -21.613,-51.625 -48.15,-51.625 -26.633,0 -48.186,23.705 -48.186,51.625 C -48.186,-22.757 -26.633,0 0,0" /></g><g
             transform="translate(949.8247,1227.6577)"
             id="g434"><path
               inkscape:connector-curvature="0"
               id="path436"
               style="fill:#d11d24;fill-opacity:1;fill-rule:nonzero;stroke:none"
               d="m 0,0 c 32.477,0 58.246,-27.143 58.246,-60.446 0,-33.997 -25.769,-61.222 -58.246,-61.222 -31.542,0 -58.114,27.225 -58.114,61.222 C -58.114,-27.143 -31.542,0 0,0" /></g><g
             transform="translate(706.728,1581.6113)"
             id="g438"><path
               inkscape:connector-curvature="0"
               id="path440"
               style="fill:#d11d24;fill-opacity:1;fill-rule:nonzero;stroke:none"
               d="m 0,0 c -15.832,0 -29.076,-13.96 -29.076,-30.642 0,-17.472 13.244,-30.655 29.076,-30.655 15.783,0 29.039,13.183 29.039,30.655 C 29.039,-13.96 15.783,0 0,0" /></g><g
             transform="translate(707.1172,1463.5986)"
             id="g442"><path
               inkscape:connector-curvature="0"
               id="path444"
               style="fill:#d11d24;fill-opacity:1;fill-rule:nonzero;stroke:none"
               d="m 0,0 c -21.628,0 -39.1,-18.334 -39.1,-41.104 0,-21.845 17.472,-40.24 39.1,-40.24 20.763,0 38.235,18.395 38.235,40.24 C 38.235,-18.334 20.763,0 0,0" /></g><g
             transform="translate(707.1172,1345.6577)"
             id="g446"><path
               inkscape:connector-curvature="0"
               id="path448"
               style="fill:#d11d24;fill-opacity:1;fill-rule:nonzero;stroke:none"
               d="m 0,0 c -26.634,0 -49.051,-22.769 -49.051,-50.834 0,-27.921 22.417,-50.69 49.051,-50.69 26.571,0 48.186,22.769 48.186,50.69 C 48.186,-22.769 26.571,0 0,0" /></g><g
             transform="translate(707.1172,1228.084)"
             id="g450"
             style="fill:#ffffff;fill-opacity:0"><path
               inkscape:connector-curvature="0"
               id="path452"
               style="fill:#ffffff;fill-opacity:0;fill-rule:nonzero;stroke:none"
               d="m 0,0 c -32.442,0 -58.187,-28.006 -58.187,-61.225 0,-34.166 25.745,-61.297 58.187,-61.297 31.576,0 57.286,27.131 57.286,61.297 C 57.286,-28.006 31.576,0 0,0" /></g><g
             transform="translate(949.8247,752.0479)"
             id="g454"><path
               inkscape:connector-curvature="0"
               id="path456"
               style="fill:#d11d24;fill-opacity:1;fill-rule:nonzero;stroke:none"
               d="M 0,0 C 15.831,0 29.111,13.183 29.111,30.641 29.111,47.263 15.831,61.294 0,61.294 -15.783,61.294 -29.039,47.263 -29.039,30.641 -29.039,13.183 -15.783,0 0,0" /></g><g
             transform="translate(950.2861,869.9873)"
             id="g458"><path
               inkscape:connector-curvature="0"
               id="path460"
               style="fill:#d11d24;fill-opacity:1;fill-rule:nonzero;stroke:none"
               d="M 0,0 C 21.553,0 38.211,17.545 38.211,40.313 38.211,63.082 21.553,81.488 0,81.488 -21.627,81.488 -39.099,63.082 -39.099,40.313 -39.099,17.545 -21.627,0 0,0" /></g><g
             transform="translate(949.8247,987.5518)"
             id="g462"><path
               inkscape:connector-curvature="0"
               id="path464"
               style="fill:#d11d24;fill-opacity:1;fill-rule:nonzero;stroke:none"
               d="m 0,0 c 26.669,0 48.223,22.707 48.223,51.71 0,27.992 -21.554,50.688 -48.223,50.688 -26.572,0 -48.151,-22.696 -48.151,-50.688 C -48.151,22.707 -26.572,0 0,0" /></g><g
             transform="translate(706.728,752.4854)"
             id="g466"><path
               inkscape:connector-curvature="0"
               id="path468"
               style="fill:#d11d24;fill-opacity:1;fill-rule:nonzero;stroke:none"
               d="m 0,0 c -15.832,0 -29.076,13.169 -29.076,29.779 0,17.556 13.244,30.656 29.076,30.656 15.783,0 29.039,-13.1 29.039,-30.656 C 29.039,13.169 15.783,0 0,0" /></g><g
             transform="translate(710.2021,869.9873)"
             id="g470"><path
               inkscape:connector-curvature="0"
               id="path472"
               style="fill:#d11d24;fill-opacity:1;fill-rule:nonzero;stroke:none"
               d="m 0,0 c -21.59,0 -39.026,18.406 -39.026,41.175 0,21.907 17.436,40.313 39.026,40.313 20.765,0 38.2,-18.406 38.2,-40.313 C 38.2,18.406 20.765,0 0,0" /></g><g
             transform="translate(707.1172,988.001)"
             id="g474"><path
               inkscape:connector-curvature="0"
               id="path476"
               style="fill:#d11d24;fill-opacity:1;fill-rule:nonzero;stroke:none"
               d="m 0,0 c -26.634,0 -49.051,22.77 -49.051,50.762 0,27.992 22.417,50.76 49.051,50.76 26.571,0 48.186,-22.768 48.186,-50.76 C 48.186,22.77 26.571,0 0,0" /></g><g
             transform="translate(463.5454,1325.04)"
             id="g478"><path
               inkscape:connector-curvature="0"
               id="path480"
               style="fill:#d11d24;fill-opacity:1;fill-rule:nonzero;stroke:none"
               d="m 0,0 c -15.782,0 -29.112,-13.098 -29.112,-29.779 0,-17.485 13.33,-30.582 29.112,-30.582 15.795,0 29.075,13.097 29.075,30.582 C 29.075,-13.098 15.795,0 0,0" /></g><g
             transform="translate(341.9238,1195.29)"
             id="g482"><path
               inkscape:connector-curvature="0"
               id="path484"
               style="fill:#d11d24;fill-opacity:1;fill-rule:nonzero;stroke:none"
               d="m 0,0 c 15.322,0 27.034,-12.393 27.034,-28.431 0,-16.11 -11.712,-28.505 -27.034,-28.505 -15.211,0 -26.997,12.395 -26.997,28.505 C -26.997,-12.393 -15.211,0 0,0" /></g><g
             transform="translate(463.9463,1069.4043)"
             id="g486"><path
               inkscape:connector-curvature="0"
               id="path488"
               style="fill:#d11d24;fill-opacity:1;fill-rule:nonzero;stroke:none"
               d="m 0,0 c -16.621,0 -29.075,-13.948 -29.075,-30.642 0,-16.621 12.454,-30.583 29.075,-30.583 15.819,0 28.249,13.962 28.249,30.583 C 28.249,-13.948 15.819,0 0,0" /></g><g
             transform="translate(462.9014,1213.1992)"
             id="g490"><path
               inkscape:connector-curvature="0"
               id="path492"
               style="fill:#d11d24;fill-opacity:1;fill-rule:nonzero;stroke:none"
               d="m 0,0 c -23.875,0 -42.779,-19.914 -42.779,-46.327 0,-25.213 18.904,-46.414 42.779,-46.414 25.175,0 44.008,21.201 44.008,46.414 C 44.008,-19.914 25.175,0 0,0" /></g><g
             transform="translate(1193.0059,1325.04)"
             id="g494"><path
               inkscape:connector-curvature="0"
               id="path496"
               style="fill:#d11d24;fill-opacity:1;fill-rule:nonzero;stroke:none"
               d="m 0,0 c 15.782,0 29.112,-13.098 29.112,-29.779 0,-17.485 -13.33,-30.582 -29.112,-30.582 -16.657,0 -29.074,13.097 -29.074,30.582 C -29.074,-13.098 -16.657,0 0,0" /></g><g
             transform="translate(1193.0059,1069.4043)"
             id="g498"><path
               inkscape:connector-curvature="0"
               id="path500"
               style="fill:#d11d24;fill-opacity:1;fill-rule:nonzero;stroke:none"
               d="m 0,0 c 15.782,0 29.112,-13.948 29.112,-30.642 0,-16.621 -13.33,-30.583 -29.112,-30.583 -15.795,0 -29.074,13.962 -29.074,30.583 C -29.074,-13.948 -15.795,0 0,0" /></g></g></g></g><g
       id="g502"
       transform="translate(27,2300.7197)"><path
         d="m 0,0 -27,0 m 3440.58,0 27,0 M 0,-2267.72 l -27,0 m 3440.58,0 27,0 M 6,6 6,33 m 0,-2306.72 0,-27 M 3407.58,6 l 0,27 m 0,-2306.72 0,-27"
         style="fill:none;stroke:#ffffff;stroke-width:1.25;stroke-linecap:butt;stroke-linejoin:miter;stroke-miterlimit:10;stroke-opacity:1;stroke-dasharray:none"
         id="path504"
         inkscape:connector-curvature="0" /></g><g
       id="g506"
       transform="translate(27,2300.7197)"><path
         d="m 0,0 -27,0 m 3440.58,0 27,0 M 0,-2267.72 l -27,0 m 3440.58,0 27,0 M 6,6 6,33 m 0,-2306.72 0,-27 M 3407.58,6 l 0,27 m 0,-2306.72 0,-27"
         style="fill:none;stroke:#000000;stroke-width:0.25;stroke-linecap:butt;stroke-linejoin:miter;stroke-miterlimit:10;stroke-opacity:1;stroke-dasharray:none"
         id="path508"
         inkscape:connector-curvature="0" /></g></g></svg>