<?xml version="1.0" encoding="utf-8"?>
<!-- Generator: Adobe Illustrator 16.0.0, SVG Export Plug-In . SVG Version: 6.00 Build 0)  -->
<!DOCTYPE svg PUBLIC "-//W3C//DTD SVG 1.1//EN" "http://www.w3.org/Graphics/SVG/1.1/DTD/svg11.dtd" [
	<!ENTITY ns_flows "http://ns.adobe.com/Flows/1.0/">
	<!ENTITY ns_extend "http://ns.adobe.com/Extensibility/1.0/">
	<!ENTITY ns_ai "http://ns.adobe.com/AdobeIllustrator/10.0/">
	<!ENTITY ns_graphs "http://ns.adobe.com/Graphs/1.0/">
]>
<svg version="1.1" id="Layer_1" xmlns:x="&ns_extend;" xmlns:i="&ns_ai;" xmlns:graph="&ns_graphs;"
	 xmlns="http://www.w3.org/2000/svg" xmlns:xlink="http://www.w3.org/1999/xlink" xmlns:a="http://ns.adobe.com/AdobeSVGViewerExtensions/3.0/"
	 x="0px" y="0px" width="798.492px" height="173px" viewBox="0 0 798.492 173" enable-background="new 0 0 798.492 173"
	 xml:space="preserve">
<path fill="#FF0000" d="M254.047,19.902"/>
<path fill="#F72F2F" d="M164.506,110.036h-18.369v52.124h-2.756c-1.686-1.682-3.063-2.831-4.133-3.444
	c-1.073-0.609-2.755-0.918-5.052-0.918c-2.755,0-5.551,0.728-8.381,2.182c-2.834,1.457-6.124,3.1-9.874,4.937
	c-3.752,1.837-8.152,3.482-13.204,4.937c-5.051,1.453-11.176,2.182-18.37,2.182c-10.871,0-20.514-1.802-28.932-5.396
	c-8.421-3.595-16.533-9.298-24.34-17.105c-7.656-7.653-14.007-16.684-19.058-27.097C6.985,112.027,4.46,100.316,4.46,87.304
	c0-8.725,0.994-16.569,2.985-23.536c1.988-6.965,4.399-13.049,7.234-18.256c2.83-5.201,5.74-9.565,8.726-13.088
	c2.985-3.519,5.47-6.274,7.462-8.267c6.889-6.888,14.772-12.475,23.651-16.761c8.876-4.285,18.979-6.43,30.31-6.43
	c5.816,0,10.599,0.458,14.352,1.377c3.749,0.918,7.003,1.952,9.758,3.1c2.756,1.148,5.242,2.182,7.463,3.101
	c2.218,0.918,7.462,1.376,7.462,1.376s0,0-0.574,11.711c-3.752-4.897-8.727-9.032-14.926-12.4
	c-6.199-3.365-14.122-5.051-23.766-5.051c-11.48,0-20.705,2.411-27.668,7.231c-6.968,4.824-12.4,11.177-16.304,19.06
	c-3.903,7.886-6.508,16.802-7.806,26.75c-1.303,9.953-1.952,19.977-1.952,30.081c0,6.889,0.304,13.776,0.919,20.665
	c0.61,6.89,1.643,13.397,3.1,19.519c1.453,6.125,3.48,11.789,6.084,16.993c2.602,5.206,5.97,9.645,10.104,13.317
	c4.592,4.133,9.334,7.003,14.235,8.611c4.898,1.607,11.252,2.41,19.059,2.41c4.744,0,9.491-0.803,14.238-2.41
	c4.742-1.608,8.99-4.019,12.744-7.233c3.748-3.215,6.81-7.309,9.185-12.285c2.372-4.973,3.56-10.828,3.56-17.565v-19.289H94.472
	v-3.215h70.034V110.036z"/>
<g>
	<rect x="164.506" y="3.627" fill="none" width="659.096" height="189.341"/>
	<path fill="#F72F2F" d="M171.514,168.793h25.932V8.999h-25.932V5.728h75.225v3.271h-25.932v159.794h41.584
		c13.703,0,24.449-4.282,32.239-12.849c7.786-8.564,13.469-20.245,17.054-35.043h2.57v51.162h-142.74V168.793z"/>
	<path fill="#F72F2F" d="M331.542,168.793h25.932V8.999h-25.932V5.728h133.629v40.416h-2.57c-2.025-6.074-4.205-11.407-6.541-16.002
		c-2.336-4.592-5.14-8.487-8.41-11.681c-3.271-3.19-7.165-5.566-11.681-7.125c-4.52-1.555-9.969-2.336-16.354-2.336h-38.78v72.188
		h15.185c5.139,0,9.499-0.467,13.083-1.402c3.581-0.935,6.658-2.687,9.228-5.256c2.57-2.57,4.749-6.074,6.542-10.513
		c1.788-4.439,3.54-10.163,5.256-17.171h2.57V119.5h-2.57c-1.091-4.516-2.219-8.878-3.387-13.083
		c-1.169-4.205-2.804-7.943-4.906-11.214s-4.906-5.877-8.41-7.826c-3.505-1.946-8.06-2.92-13.667-2.92h-18.923v84.336h44.153
		c8.563,0,15.689-1.829,21.376-5.49c5.684-3.657,10.316-8.02,13.9-13.082c3.581-5.06,6.228-10.316,7.943-15.77
		c1.712-5.45,2.803-9.965,3.271-13.55h2.569v51.162H331.542V168.793z"/>
	<path fill="#F72F2F" d="M488.765,168.793h20.558l63.077-167.27h5.606l63.544,167.27h20.792v3.271h-71.954v-3.271h25.932
		l-24.529-64.945h-54.199l-24.53,64.945h25.932v3.271h-50.228V168.793z M564.69,32.594l-25.698,67.982h51.396L564.69,32.594z"/>
	<path fill="#F72F2F" d="M686.872,168.793h25.931V8.999h-13.55c-3.117,0-6.621,0.274-10.513,0.818
		c-3.895,0.547-7.826,2.066-11.797,4.556c-3.972,2.493-7.79,6.424-11.447,11.797c-3.662,5.374-6.815,12.813-9.462,22.311h-2.569
		V5.728h142.039V48.48h-2.57c-2.649-9.498-5.804-16.937-9.461-22.311c-3.661-5.373-7.476-9.304-11.447-11.797
		c-3.972-2.49-7.907-4.008-11.798-4.556c-3.895-0.544-7.399-0.818-10.513-0.818h-13.55v159.794h25.932v3.271h-75.225V168.793z"/>
</g>
<g>
</g>
<g>
</g>
<g>
</g>
<g>
</g>
<g>
</g>
<g>
</g>
<g>
</g>
<g>
</g>
<g>
</g>
<g>
</g>
<g>
</g>
</svg>
