<?xml version="1.0" encoding="UTF-8" standalone="no"?>
<!-- Created with Inkscape (http://www.inkscape.org/) -->

<svg
   xmlns:dc="http://purl.org/dc/elements/1.1/"
   xmlns:cc="http://creativecommons.org/ns#"
   xmlns:rdf="http://www.w3.org/1999/02/22-rdf-syntax-ns#"
   xmlns:svg="http://www.w3.org/2000/svg"
   xmlns="http://www.w3.org/2000/svg"
   version="1.1"
   width="588.56476"
   height="128.54649"
   id="svg3935">
  <defs
     id="defs3937" />
  <g
     transform="translate(-28.574773,-459.5175)"
     id="layer1">
    <path
       d="m 616.13951,460.51764 -41.56125,0 0,42.825 -44.59875,0 0,-42.825 -42,0 0,126.54625 42,0 0,-43.86 44.59875,0 0,43.86 41.56125,0 0,-126.54625 z"
       id="path78"
       style="fill:#00c0f3;fill-opacity:1;fill-rule:nonzero;stroke:none" />
    <path
       d="m 426.19877,559.9475 c 24.25125,0 21.49875,-25.9275 21.49875,-31.4175 l 0,-68.0125 -44.16875,0 0,68.0125 c 0,0 -2.16375,31.4175 22.67,31.4175"
       id="path90"
       style="fill:#00c0f3;fill-opacity:1;fill-rule:nonzero;stroke:none" />
    <path
       d="m 363.69102,540.979 0,-80.45625 -334.116247,0 0,126.54125 353.754997,0 c -6.50625,-2.3725 -19.63875,-11.555 -19.63875,-46.085"
       id="path94"
       style="fill:#00c0f3;fill-opacity:1;fill-rule:nonzero;stroke:none" />
    <path
       d="m 321.85702,544.35538 0,0.495 c 0,4.8475 3.265,6.3525 6.02125,6.3525 2.4475,0 3.905,-0.84 3.905,-0.84 l 0.8175,2.3375 c 0,0 -1.9575,1.175 -5.85875,1.175 -4.2325,0 -9.1225,-1.67625 -9.1225,-9.3575 0,-3.17 1.30875,-9.3425 8.30125,-9.3425 3.265,0 5.2125,1.16 6.1975,2.99 0.96125,1.50625 1.12875,3.6875 1.12875,5.85375 l 0,0.33625 -11.39,0 z m 7.16125,-2.84125 c 0,-2.84 -0.96625,-4.18375 -3.41375,-4.18375 -1.79,0 -2.92625,0.835 -3.41625,2.68 -0.16625,0.99875 -0.16625,2.1675 -0.16625,2.1675 l 6.99625,0 0,-0.66375 z m -13.0155,-2.34113 c -0.48375,-0.3425 -1.29875,-0.8275 -2.9175,-0.8275 -1.63125,0 -2.77375,0.6625 -2.77375,0.6625 l 0,14.525 -4.06125,0 0,-18.035 3.89375,0 0,2.34625 c 0,0 1.6275,-2.66875 4.3875,-2.66875 1.30875,0 1.9525,0.3225 2.44625,0.49125 l -0.975,3.50625 z m -18.37951,14.35951 4.2375,0 0,-18.035 -4.2375,0 0,18.035 z m -8.45774,3.7e-4 0,-9.8475 c 0,-1.16625 0,-2.17125 -0.17125,-3.0075 -0.4775,-2.00375 -1.78125,-2.83375 -3.895,-2.83375 -1.80125,0 -3.08875,0.66625 -3.08875,0.66625 l 0,15.0225 -4.07625,0 0,-25.71625 4.07625,0 0,9.51375 c 0,0 1.62375,-2.155 5.35375,-2.155 3.75,0 5.2175,2.155 5.7025,3.9975 0.16,1.33375 0.16,2.68 0.16,3.50375 l 0,10.85625 -4.06125,0 z m -20.987,0.17825 c -3.90125,0 -5.85875,-1.00625 -5.85875,-1.00625 l 0.97,-2.34125 c 0,0 1.4725,1.00625 4.39625,1.00625 2.27625,0 3.41625,-1.00625 3.41625,-2.5075 0,-1.16375 -0.655,-1.5 -1.78875,-2.175 l -2.77,-1.67 c -2.26625,-1.165 -3.57125,-2.49875 -3.57125,-4.835 0,-3.51375 2.59625,-5.00625 6.34125,-5.00625 3.41625,0 5.19375,0.995 5.19375,0.995 l -0.96875,2.33875 c 0,0 -1.45875,-0.835 -3.8925,-0.835 -1.29875,0 -2.93125,0.33 -2.93125,1.9975 0,1.1775 0.64375,1.675 2.27375,2.50625 l 2.60375,1.34 c 2.12,1.17 3.25125,2.50625 3.25125,4.68125 0,4.505 -3.57625,5.51125 -6.665,5.51125 m -12.53925,-0.17825 0,-1.8275 c 0,0 -1.45875,2.00625 -5.035,2.00625 -4.39625,0 -7.48375,-3.0075 -7.48375,-8.86125 0,-5.8425 3.73375,-9.675 8.62,-9.675 2.60875,0 3.7425,0.82625 3.7425,0.82625 l 0,-8.185 4.2375,0 0,25.71625 -4.08125,0 z m -0.15625,-15.68875 c 0,0 -0.8075,-0.345 -2.27125,-0.345 -4.0725,0 -5.7,2.6825 -5.7,7.01875 0,4.01125 1.78125,6.5175 5.03875,6.5175 1.79875,0 2.9325,-0.6725 2.9325,-0.6725 l 0,-12.51875 z m -13.98838,1.32887 c -0.4875,-0.3425 -1.30625,-0.8275 -2.92875,-0.8275 -1.62875,0 -2.7625,0.6625 -2.7625,0.6625 l 0,14.525 -4.23375,0 0,-18.035 4.06875,0 0,2.34625 c 0,0 1.4675,-2.66875 4.3975,-2.66875 1.13125,0 1.7825,0.3225 2.43375,0.49125 l -0.975,3.50625 z m -21.967,14.70288 c -5.53625,0 -8.61375,-3.5125 -8.61375,-9.02625 0,-4.33875 2.105,-9.67375 8.9475,-9.67375 5.37125,0 8.46,3.49875 8.46,9.18 0,4.34 -2.125,9.52 -8.79375,9.52 m 0,-16.37625 c -3.08875,0 -4.225,2.51 -4.225,7.01875 0,4.1775 1.13625,7.0175 4.39,7.0175 3.0975,0 4.23,-2.50625 4.23,-7.0175 0,-4.17375 -1.1325,-7.01875 -4.395,-7.01875 m -7.96962,-6.84738 c 0,0 -0.8125,-0.4925 -2.11125,-0.4925 -1.2975,0 -1.94875,0.4925 -2.28625,1.33125 -0.49,0.6775 -0.49,1.5075 -0.49,3.18125 l 0,0.995 3.91,0 0,2.17125 -3.91,0 0,15.695 -4.06,0 0,-15.695 -4.06875,0 0,-2.17125 4.06875,0 0,-1.1625 c 0,-1.005 0,-1.50625 0.325,-2.84375 0.81375,-2.5025 2.59875,-3.84 5.86375,-3.84 2.26875,0 3.41375,0.66375 3.41375,0.66375 l -0.655,2.1675 z m -15.276,23.05888 c -2.78125,0 -4.40375,-0.67 -5.22125,-2.8475 -0.16125,-0.8325 -0.325,-2.335 -0.325,-3.6725 l 0,-9.34625 -2.27625,0 0,-1.84375 0.33375,-0.1625 c 1.9425,-0.5025 3.25375,-2.175 3.5725,-4.17875 l 0,-0.3375 2.605,0 0,4.345 5.53375,0 0,2.1775 -5.53375,0 0,9.85375 c 0,1.83 0.32875,3.50375 2.75875,3.50375 1.29625,0 2.12375,-0.49875 2.12375,-0.49875 l 0.80375,2.3375 c -0.3175,0 -1.7825,0.67 -4.375,0.67 M 186.51327,539.173 c -0.33375,-0.3425 -1.3075,-0.8275 -2.7725,-0.8275 -1.7925,0 -2.77,0.6625 -2.77,0.6625 l 0,14.525 -4.215,0 0,-18.035 4.055,0 0,2.34625 c 0,0 1.4625,-2.66875 4.22625,-2.66875 1.305,0 1.96125,0.3225 2.45625,0.49125 l -0.98,3.50625 z m -24.737,5.18238 0,0.495 c 0,4.8475 3.0925,6.3525 6.01875,6.3525 2.4475,0 3.7475,-0.84 3.7475,-0.84 l 0.80625,2.3375 c 0,0 -1.95,1.175 -5.6875,1.175 -4.3975,0 -9.11,-1.67625 -9.11,-9.3575 0,-3.17 1.14,-9.3425 8.29375,-9.3425 3.26375,0 5.0475,1.16 6.19125,2.99 0.8025,1.50625 1.13875,3.6875 1.13875,5.85375 l 0,0.33625 -11.39875,0 z m 7.155,-2.84125 c 0,-2.84 -1.13625,-4.18375 -3.57375,-4.18375 -1.7975,0 -2.76625,0.835 -3.25625,2.68 -0.325,0.99875 -0.325,2.1675 -0.325,2.1675 l 7.155,0 0,-0.66375 z m -19.19314,12.01876 0,-11.52125 -11.0575,0 0,11.52125 -4.245,0 0,-24.8825 4.245,0 0,10.5225 11.0575,0 0,-10.5225 4.225,0 0,24.8825 -4.225,0 z m 166.26464,-59.28464 c 0,0 -0.975,-0.49875 -2.27375,-0.49875 -1.3,0 -1.9575,0.33375 -2.60125,1.00125 -0.49,0.66375 -0.65375,1.67 -0.81625,3.50375 l -0.325,2.17125 3.90125,0 -0.32625,2.1725 -3.89875,0.16875 -2.27125,17.53375 c -0.345,1.83875 -0.825,4.01625 -2.445,5.18 -1.14,0.66625 -2.61,0.83125 -4.0675,0.83125 -1.30125,0 -2.1275,-0.165 -2.43875,-0.335 l 0.6475,-2.49875 c 0,0 0.64375,0.33375 1.46125,0.33375 1.4625,0 2.60125,-0.33375 2.92375,-3.34625 l 2.43875,-17.69875 -2.43875,0 0.16875,-2.34125 2.60875,0 0,-1.16375 c 0.1525,-1.67 0.49125,-3.675 0.97375,-5.01375 0.48625,-1.16875 1.7825,-3.175 5.86125,-3.005 2.2675,0 3.56875,0.6675 3.56875,0.6675 l -0.65125,2.3375 z m -23.26788,24.5505 c -4.06125,0 -7.15,-1.83625 -7.15,-7.85125 0,-4.3375 2.10875,-10.85625 8.45125,-10.85625 4.0725,0 7.1675,1.83875 7.1675,7.85375 0,4.34 -2.115,10.85375 -8.46875,10.85375 m 1.30125,-16.2 c -1.455,0 -2.43875,0.6675 -3.25,2.33875 -1.135,2.34 -1.2975,5.3475 -1.2975,6.845 0,4.1775 1.78375,4.67625 3.24625,4.67625 1.47,0 2.61,-0.8275 3.25875,-2.50125 1.1375,-2.175 1.31125,-5.17375 1.31125,-6.68 0,-4.17625 -1.795,-4.67875 -3.26875,-4.67875 m -20.3245,19.36988 c -1.1525,3.18125 -2.9325,4.51125 -5.69875,4.51125 -1.7875,0 -2.5975,-0.5025 -2.5975,-0.5025 l 0.64375,-2.5 c 0,0 0.81375,0.50125 1.6275,0.50125 1.6275,0 2.275,-0.84375 3.0925,-2.8425 l 0.65875,-2.17 -7.00875,-18.54125 4.56,0 3.74125,12.02375 c 0.4875,1.50875 0.65375,2.17625 0.65375,2.17625 l 4.39375,-14.2 3.5725,0 -7.63875,21.54375 z m -12.853,-3.3345 c -2.76375,0 -4.565,-0.6675 -5.22,-2.8425 -0.31125,-0.8325 -0.31125,-2.335 -0.31125,-3.675 l 0,-9.34875 -2.445,0 0,-1.83875 0.49625,-0.1725 c 1.94875,-0.49875 3.24,-2.1675 3.41625,-4.16375 l 0,-0.34125 2.59,0 0,4.3475 5.6875,0 1.6425,2.16875 -7.33,0 0,9.85625 c 0,2.00125 0.3275,3.50375 2.7625,3.50375 1.3075,0 2.28125,-0.5025 2.28125,-0.5025 l 0.64375,2.34125 c -0.31,0 -1.7825,0.6675 -4.21375,0.6675 M 248.48689,497.592 c -1.4625,0 -2.6025,-1 -2.6025,-2.3375 0,-1.505 0.97,-2.3375 2.6025,-2.3375 1.47,0 2.43875,0.8325 2.43875,2.16375 0,1.51125 -0.96875,2.51125 -2.43875,2.51125 m -2.12375,2.8325 4.2425,0 0,18.035 -4.2425,0 0,-18.035 z m -9.745,18.20963 c -3.91625,0 -5.86125,-1.00625 -5.86125,-1.00625 l 0.98,-2.33875 c 0,0 1.4525,1.005 4.38875,1.005 2.285,0 3.41625,-1.005 3.41625,-2.50375 0,-1.16625 -0.64125,-1.505 -1.78375,-2.17 l -2.7675,-1.6675 c -2.28875,-1.17375 -3.59,-2.51375 -3.59,-4.84875 0,-3.5125 2.61875,-5.0125 6.3575,-5.0125 3.40875,0 5.2025,1.00625 5.2025,1.00625 l -0.82,2.335 c 0,0 -1.62125,-0.83875 -3.895,-0.83875 -1.47875,0 -3.0975,0.3425 -3.0975,2.0075 0,1.16875 0.8225,1.67 2.27875,2.50625 l 2.60875,1.33625 c 2.105,1.17 3.25125,2.50375 3.25125,4.67875 0,4.505 -3.585,5.51125 -6.66875,5.51125 m -6.84062,-14.53125 c -0.3275,-0.33625 -1.135,-0.8375 -2.75875,-0.8375 -1.635,0 -2.77,0.67 -2.77,0.67 l 0,14.525 -4.22875,0 0,-18.035 4.075,0 0,2.3425 c 0,0 1.4425,-2.67625 4.38,-2.67625 1.1425,0 1.7925,0.33375 2.2825,0.5025 l -0.98,3.50875 z m -24.24313,5.17537 0,0.5025 c 0,4.84375 3.08875,6.34625 6.02375,6.34625 2.43375,0 3.745,-0.83875 3.745,-0.83875 l 0.80875,2.34 c 0,0 -1.79,1.17 -5.69125,1.17 -4.39625,0 -9.10625,-1.67375 -9.10625,-9.35625 0,-3.17125 1.29625,-9.35 8.28625,-9.35 3.26375,0 5.05751,1.1725 6.18376,3.00875 0.82624,1.50125 1.15125,3.67375 1.15125,5.84625 l 0,0.33125 -11.40125,0 z m 7.175,-2.83375 c 0,-2.8425 -1.15125,-4.17375 -3.42875,-4.17375 -1.9475,0 -2.91625,0.83 -3.4125,2.665 -0.33375,1.005 -0.33375,2.1725 -0.33375,2.1725 l 7.175,0 0,-0.66375 z m -19.2085,12.01575 -3.4175,0 -6.67375,-18.02875 4.56,0 3.73875,11.85375 c 0.4875,1.33625 0.4875,2.1725 0.4875,2.1725 0,0 0.33,-1.00125 0.8175,-2.34125 l 3.74125,-11.685 3.75,0 -7.00375,18.02875 z M 179.34339,497.592 c -1.29,0 -2.43625,-1 -2.43625,-2.3375 0,-1.505 0.97375,-2.3375 2.605,-2.3375 1.45875,0 2.43625,0.8325 2.43625,2.16375 0,1.51125 -0.9775,2.51125 -2.605,2.51125 m -1.945,2.8325 4.22625,0 0,18.035 -4.22625,0 0,-18.035 z m -8.46762,18.03575 0,-9.85 c 0,-1.17125 0,-2.1725 -0.15375,-3.005 -0.4925,-2.00375 -1.79875,-2.8375 -3.9075,-2.8375 -1.79125,0 -2.91375,0.665 -2.91375,0.665 l 0,15.0275 -4.24125,0 0,-18.02875 4.06125,0 0,1.8375 c 0,0 1.62625,-2.1775 5.37625,-2.1775 3.74,0 5.1975,2.1775 5.68625,4.01375 0.165,1.335 0.165,2.66875 0.165,3.5075 l 0,10.8475 -4.0725,0 z m -16.2665,-4.83887 c -1.1375,2.67375 -2.92625,5.1775 -8.79125,5.1775 -5.03875,0 -7.4775,-1.83625 -8.60875,-4.17375 -0.98,-1.67375 -1.1375,-4.17375 -1.1375,-7.35 l 0,-13.69625 4.395,0 0,15.87 c 0,1.16875 0,2.50875 0.15875,3.1725 0.645,2.3375 2.435,3.50625 5.3575,3.50625 3.0975,0 4.8825,-1.16875 5.36375,-3.68 0.17625,-0.665 0.33625,-1.99625 0.33625,-3.16875 l 0,-15.7 3.57,0 0,13.52875 c 0,4.005 -0.31,5.67875 -0.64375,6.51375"
       id="path208"
       style="fill:#ffffff;fill-opacity:1;fill-rule:nonzero;stroke:none" />
  </g>
</svg>
